# Tiled2Unity generated file. Do not modify by hand.
# Wavefront file for 'academy-hallway_mesh_0009.obj'

# Vertices (Count = 128)
v -416 -448 0
v -448 -448 0
v -448 -416 0
v -416 -416 0
v -480 -448 0
v -512 -448 0
v -512 -416 0
v -480 -416 0
v -544 -448 0
v -576 -448 0
v -576 -416 0
v -544 -416 0
v -608 -448 0
v -640 -448 0
v -640 -416 0
v -608 -416 0
v -640 -448 0
v -672 -448 0
v -672 -416 0
v -640 -416 0
v -768 -448 0
v -800 -448 0
v -800 -416 0
v -768 -416 0
v -800 -448 0
v -832 -448 0
v -832 -416 0
v -800 -416 0
v -416 -480 0
v -448 -480 0
v -448 -448 0
v -416 -448 0
v -480 -480 0
v -512 -480 0
v -512 -448 0
v -480 -448 0
v -544 -480 0
v -576 -480 0
v -576 -448 0
v -544 -448 0
v -608 -480 0
v -640 -480 0
v -640 -448 0
v -608 -448 0
v -768 -480 0
v -800 -480 0
v -800 -448 0
v -768 -448 0
v -800 -480 0
v -832 -480 0
v -832 -448 0
v -800 -448 0
v -384 -512 0
v -416 -512 0
v -416 -480 0
v -384 -480 0
v -416 -512 0
v -448 -512 0
v -448 -480 0
v -416 -480 0
v -448 -512 0
v -480 -512 0
v -480 -480 0
v -448 -480 0
v -480 -512 0
v -512 -512 0
v -512 -480 0
v -480 -480 0
v -512 -512 0
v -544 -512 0
v -544 -480 0
v -512 -480 0
v -544 -512 0
v -576 -512 0
v -576 -480 0
v -544 -480 0
v -576 -512 0
v -608 -512 0
v -608 -480 0
v -576 -480 0
v -608 -512 0
v -640 -512 0
v -640 -480 0
v -608 -480 0
v -640 -512 0
v -672 -512 0
v -672 -480 0
v -640 -480 0
v -736 -512 0
v -768 -512 0
v -768 -480 0
v -736 -480 0
v -768 -512 0
v -800 -512 0
v -800 -480 0
v -768 -480 0
v -800 -512 0
v -832 -512 0
v -832 -480 0
v -800 -480 0
v -832 -512 0
v -864 -512 0
v -864 -480 0
v -832 -480 0
v -864 -512 0
v -896 -512 0
v -896 -480 0
v -864 -480 0
v -896 -512 0
v -928 -512 0
v -928 -480 0
v -896 -480 0
v -928 -512 0
v -960 -512 0
v -960 -480 0
v -928 -480 0
v -960 -512 0
v -992 -512 0
v -992 -480 0
v -960 -480 0
v -992 -512 0
v -1024 -512 0
v -1024 -480 0
v -992 -480 0
v -1024 -512 0
v -1056 -512 0
v -1056 -480 0
v -1024 -480 0

# Texture cooridinates (Count = 29)
vt 0.625 0.406015
vt 0.75 0.406015
vt 0.75 0.4135338
vt 0.625 0.4135338
vt 0.5 0.406015
vt 0.5 0.4135338
vt 0.375 0.406015
vt 0.375 0.4135338
vt 0.25 0.406015
vt 0.25 0.4135338
vt 0.75 0.4962406
vt 0.875 0.4962406
vt 0.875 0.5037594
vt 0.75 0.5037594
vt 0 0.406015
vt 0.125 0.406015
vt 0.125 0.4135338
vt 0 0.4135338
vt 0.625 0.3984963
vt 0.75 0.3984963
vt 0.5 0.3984963
vt 0.375 0.3984963
vt 0.25 0.3984963
vt 0 0.3984963
vt 0.125 0.3984963
vt 0.125 0.1954888
vt 0.25 0.1954888
vt 0.25 0.2030075
vt 0.125 0.2030075

# Normal
vn 0 0 -1

# Mesh description
g academy-hallway_mesh_0009

# Faces
f 1/1/1 2/2/1 3/3/1 4/4/1
f 5/5/1 6/1/1 7/4/1 8/6/1
f 9/7/1 10/5/1 11/6/1 12/8/1
f 13/9/1 14/7/1 15/8/1 16/10/1
f 17/11/1 18/12/1 19/13/1 20/14/1
f 21/15/1 22/16/1 23/17/1 24/18/1
f 25/16/1 26/9/1 27/10/1 28/17/1
f 29/19/1 30/20/1 31/2/1 32/1/1
f 33/21/1 34/19/1 35/1/1 36/5/1
f 37/22/1 38/21/1 39/5/1 40/7/1
f 41/23/1 42/22/1 43/7/1 44/9/1
f 45/24/1 46/25/1 47/16/1 48/15/1
f 49/25/1 50/23/1 51/9/1 52/16/1
f 53/26/1 54/27/1 55/28/1 56/29/1
f 57/26/1 58/27/1 59/28/1 60/29/1
f 61/26/1 62/27/1 63/28/1 64/29/1
f 65/26/1 66/27/1 67/28/1 68/29/1
f 69/26/1 70/27/1 71/28/1 72/29/1
f 73/26/1 74/27/1 75/28/1 76/29/1
f 77/26/1 78/27/1 79/28/1 80/29/1
f 81/26/1 82/27/1 83/28/1 84/29/1
f 85/26/1 86/27/1 87/28/1 88/29/1
f 89/26/1 90/27/1 91/28/1 92/29/1
f 93/26/1 94/27/1 95/28/1 96/29/1
f 97/26/1 98/27/1 99/28/1 100/29/1
f 101/26/1 102/27/1 103/28/1 104/29/1
f 105/26/1 106/27/1 107/28/1 108/29/1
f 109/26/1 110/27/1 111/28/1 112/29/1
f 113/26/1 114/27/1 115/28/1 116/29/1
f 117/26/1 118/27/1 119/28/1 120/29/1
f 121/26/1 122/27/1 123/28/1 124/29/1
f 125/26/1 126/27/1 127/28/1 128/29/1

