# Tiled2Unity generated file. Do not modify by hand.
# Wavefront file for 'academy-hallway_mesh_0005.obj'

# Vertices (Count = 176)
v -480 -64 0
v -512 -64 0
v -512 -32 0
v -480 -32 0
v -480 -96 0
v -512 -96 0
v -512 -64 0
v -480 -64 0
v -608 -320 0
v -640 -320 0
v -640 -288 0
v -608 -288 0
v -640 -320 0
v -672 -320 0
v -672 -288 0
v -640 -288 0
v -672 -320 0
v -704 -320 0
v -704 -288 0
v -672 -288 0
v -768 -320 0
v -800 -320 0
v -800 -288 0
v -768 -288 0
v -800 -320 0
v -832 -320 0
v -832 -288 0
v -800 -288 0
v -832 -320 0
v -864 -320 0
v -864 -288 0
v -832 -288 0
v -928 -320 0
v -960 -320 0
v -960 -288 0
v -928 -288 0
v -960 -320 0
v -992 -320 0
v -992 -288 0
v -960 -288 0
v -992 -320 0
v -1024 -320 0
v -1024 -288 0
v -992 -288 0
v -608 -352 0
v -640 -352 0
v -640 -320 0
v -608 -320 0
v -640 -352 0
v -672 -352 0
v -672 -320 0
v -640 -320 0
v -672 -352 0
v -704 -352 0
v -704 -320 0
v -672 -320 0
v -768 -352 0
v -800 -352 0
v -800 -320 0
v -768 -320 0
v -800 -352 0
v -832 -352 0
v -832 -320 0
v -800 -320 0
v -832 -352 0
v -864 -352 0
v -864 -320 0
v -832 -320 0
v -928 -352 0
v -960 -352 0
v -960 -320 0
v -928 -320 0
v -960 -352 0
v -992 -352 0
v -992 -320 0
v -960 -320 0
v -992 -352 0
v -1024 -352 0
v -1024 -320 0
v -992 -320 0
v -384 -448 0
v -416 -448 0
v -416 -416 0
v -384 -416 0
v -416 -448 0
v -448 -448 0
v -448 -416 0
v -416 -416 0
v -448 -448 0
v -480 -448 0
v -480 -416 0
v -448 -416 0
v -480 -448 0
v -512 -448 0
v -512 -416 0
v -480 -416 0
v -512 -448 0
v -544 -448 0
v -544 -416 0
v -512 -416 0
v -544 -448 0
v -576 -448 0
v -576 -416 0
v -544 -416 0
v -576 -448 0
v -608 -448 0
v -608 -416 0
v -576 -416 0
v -608 -448 0
v -640 -448 0
v -640 -416 0
v -608 -416 0
v -672 -448 0
v -704 -448 0
v -704 -416 0
v -672 -416 0
v -704 -448 0
v -736 -448 0
v -736 -416 0
v -704 -416 0
v -736 -448 0
v -768 -448 0
v -768 -416 0
v -736 -416 0
v -768 -448 0
v -800 -448 0
v -800 -416 0
v -768 -416 0
v -800 -448 0
v -832 -448 0
v -832 -416 0
v -800 -416 0
v -832 -448 0
v -864 -448 0
v -864 -416 0
v -832 -416 0
v -864 -448 0
v -896 -448 0
v -896 -416 0
v -864 -416 0
v -896 -448 0
v -928 -448 0
v -928 -416 0
v -896 -416 0
v -928 -448 0
v -960 -448 0
v -960 -416 0
v -928 -416 0
v -960 -448 0
v -992 -448 0
v -992 -416 0
v -960 -416 0
v -992 -448 0
v -1024 -448 0
v -1024 -416 0
v -992 -416 0
v -1024 -448 0
v -1056 -448 0
v -1056 -416 0
v -1024 -416 0
v -672 -480 0
v -704 -480 0
v -704 -448 0
v -672 -448 0
v -704 -480 0
v -736 -480 0
v -736 -448 0
v -704 -448 0
v -672 -512 0
v -704 -512 0
v -704 -480 0
v -672 -480 0
v -704 -512 0
v -736 -512 0
v -736 -480 0
v -704 -480 0

# Texture cooridinates (Count = 32)
vt 0.75 0.7218045
vt 0.875 0.7218045
vt 0.875 0.7293233
vt 0.75 0.7293233
vt 0.75 0.7142857
vt 0.875 0.7142857
vt 0.625 0.3007519
vt 0.75 0.3007519
vt 0.75 0.3082707
vt 0.625 0.3082707
vt 0.875 0.3007519
vt 0.875 0.3082707
vt 1 0.3007519
vt 1 0.3082707
vt 0.625 0.2857143
vt 0.75 0.2857143
vt 0.75 0.2932331
vt 0.625 0.2932331
vt 0.875 0.2857143
vt 0.875 0.2932331
vt 1 0.2857143
vt 1 0.2932331
vt 0.75 0.4962406
vt 0.875 0.4962406
vt 0.875 0.5037594
vt 0.75 0.5037594
vt 1 0.6315789
vt 0.875 0.6315789
vt 0.875 0.6390978
vt 1 0.6390978
vt 1 0.6240602
vt 0.875 0.6240602

# Normal
vn 0 0 -1

# Mesh description
g academy-hallway_mesh_0005

# Faces
f 1/1/1 2/2/1 3/3/1 4/4/1
f 5/5/1 6/6/1 7/2/1 8/1/1
f 9/7/1 10/8/1 11/9/1 12/10/1
f 13/8/1 14/11/1 15/12/1 16/9/1
f 17/11/1 18/13/1 19/14/1 20/12/1
f 21/7/1 22/8/1 23/9/1 24/10/1
f 25/8/1 26/11/1 27/12/1 28/9/1
f 29/11/1 30/13/1 31/14/1 32/12/1
f 33/7/1 34/8/1 35/9/1 36/10/1
f 37/8/1 38/11/1 39/12/1 40/9/1
f 41/11/1 42/13/1 43/14/1 44/12/1
f 45/15/1 46/16/1 47/17/1 48/18/1
f 49/16/1 50/19/1 51/20/1 52/17/1
f 53/19/1 54/21/1 55/22/1 56/20/1
f 57/15/1 58/16/1 59/17/1 60/18/1
f 61/16/1 62/19/1 63/20/1 64/17/1
f 65/19/1 66/21/1 67/22/1 68/20/1
f 69/15/1 70/16/1 71/17/1 72/18/1
f 73/16/1 74/19/1 75/20/1 76/17/1
f 77/19/1 78/21/1 79/22/1 80/20/1
f 81/23/1 82/24/1 83/25/1 84/26/1
f 85/23/1 86/24/1 87/25/1 88/26/1
f 89/23/1 90/24/1 91/25/1 92/26/1
f 93/23/1 94/24/1 95/25/1 96/26/1
f 97/23/1 98/24/1 99/25/1 100/26/1
f 101/23/1 102/24/1 103/25/1 104/26/1
f 105/23/1 106/24/1 107/25/1 108/26/1
f 109/23/1 110/24/1 111/25/1 112/26/1
f 113/23/1 114/24/1 115/25/1 116/26/1
f 117/23/1 118/24/1 119/25/1 120/26/1
f 121/23/1 122/24/1 123/25/1 124/26/1
f 125/23/1 126/24/1 127/25/1 128/26/1
f 129/23/1 130/24/1 131/25/1 132/26/1
f 133/23/1 134/24/1 135/25/1 136/26/1
f 137/23/1 138/24/1 139/25/1 140/26/1
f 141/23/1 142/24/1 143/25/1 144/26/1
f 145/23/1 146/24/1 147/25/1 148/26/1
f 149/23/1 150/24/1 151/25/1 152/26/1
f 153/23/1 154/24/1 155/25/1 156/26/1
f 157/23/1 158/24/1 159/25/1 160/26/1
f 161/27/1 162/28/1 163/29/1 164/30/1
f 165/28/1 166/27/1 167/30/1 168/29/1
f 169/31/1 170/32/1 171/28/1 172/27/1
f 173/32/1 174/31/1 175/27/1 176/28/1

