# Tiled2Unity generated file. Do not modify by hand.
# Wavefront file for 'Forest-boss_mesh_0003.obj'

# Vertices (Count = 104)
v -288 -320 0
v -320 -320 0
v -320 -288 0
v -288 -288 0
v -384 -320 0
v -416 -320 0
v -416 -288 0
v -384 -288 0
v -448 -320 0
v -480 -320 0
v -480 -288 0
v -448 -288 0
v -608 -320 0
v -640 -320 0
v -640 -288 0
v -608 -288 0
v -704 -320 0
v -736 -320 0
v -736 -288 0
v -704 -288 0
v -512 -352 0
v -544 -352 0
v -544 -320 0
v -512 -320 0
v -576 -352 0
v -608 -352 0
v -608 -320 0
v -576 -320 0
v -640 -416 0
v -672 -416 0
v -672 -384 0
v -640 -384 0
v -704 -416 0
v -736 -416 0
v -736 -384 0
v -704 -384 0
v -640 -480 0
v -672 -480 0
v -672 -448 0
v -640 -448 0
v -704 -480 0
v -736 -480 0
v -736 -448 0
v -704 -448 0
v -672 -512 0
v -704 -512 0
v -704 -480 0
v -672 -480 0
v -704 -512 0
v -736 -512 0
v -736 -480 0
v -704 -480 0
v -640 -576 0
v -672 -576 0
v -672 -544 0
v -640 -544 0
v -608 -608 0
v -640 -608 0
v -640 -576 0
v -608 -576 0
v -640 -608 0
v -672 -608 0
v -672 -576 0
v -640 -576 0
v -704 -608 0
v -736 -608 0
v -736 -576 0
v -704 -576 0
v -224 -640 0
v -256 -640 0
v -256 -608 0
v -224 -608 0
v -320 -640 0
v -352 -640 0
v -352 -608 0
v -320 -608 0
v -416 -640 0
v -448 -640 0
v -448 -608 0
v -416 -608 0
v -480 -640 0
v -512 -640 0
v -512 -608 0
v -480 -608 0
v -576 -640 0
v -608 -640 0
v -608 -608 0
v -576 -608 0
v -288 -672 0
v -320 -672 0
v -320 -640 0
v -288 -640 0
v -512 -672 0
v -544 -672 0
v -544 -640 0
v -512 -640 0
v -608 -672 0
v -640 -672 0
v -640 -640 0
v -608 -640 0
v -704 -672 0
v -736 -672 0
v -736 -640 0
v -704 -640 0

# Texture cooridinates (Count = 10)
vt 0.03118908 0.6569201
vt 0.06237817 0.6569201
vt 0.06237817 0.6881092
vt 0.03118908 0.6881092
vt 0.09356725 0.6569201
vt 0.09356725 0.6881092
vt 0.1247563 0.6569201
vt 0.1247563 0.6881092
vt 0 0.6569201
vt 0 0.6881092

# Normal
vn 0 0 -1

# Mesh description
g Forest-boss_mesh_0003

# Faces
f 1/1/1 2/2/1 3/3/1 4/4/1
f 5/2/1 6/5/1 7/6/1 8/3/1
f 9/5/1 10/7/1 11/8/1 12/6/1
f 13/2/1 14/5/1 15/6/1 16/3/1
f 17/5/1 18/7/1 19/8/1 20/6/1
f 21/1/1 22/2/1 23/3/1 24/4/1
f 25/5/1 26/7/1 27/8/1 28/6/1
f 29/2/1 30/5/1 31/6/1 32/3/1
f 33/9/1 34/1/1 35/4/1 36/10/1
f 37/1/1 38/2/1 39/3/1 40/4/1
f 41/2/1 42/5/1 43/6/1 44/3/1
f 45/5/1 46/7/1 47/8/1 48/6/1
f 49/2/1 50/5/1 51/6/1 52/3/1
f 53/2/1 54/5/1 55/6/1 56/3/1
f 57/5/1 58/7/1 59/8/1 60/6/1
f 61/2/1 62/5/1 63/6/1 64/3/1
f 65/9/1 66/1/1 67/4/1 68/10/1
f 69/1/1 70/2/1 71/3/1 72/4/1
f 73/2/1 74/5/1 75/6/1 76/3/1
f 77/5/1 78/7/1 79/8/1 80/6/1
f 81/2/1 82/5/1 83/6/1 84/3/1
f 85/1/1 86/2/1 87/3/1 88/4/1
f 89/5/1 90/7/1 91/8/1 92/6/1
f 93/9/1 94/1/1 95/4/1 96/10/1
f 97/2/1 98/5/1 99/6/1 100/3/1
f 101/5/1 102/7/1 103/8/1 104/6/1

