# Tiled2Unity generated file. Do not modify by hand.
# Wavefront file for 'armor-store_mesh_0004.obj'

# Vertices (Count = 376)
v -32 -64 0
v -64 -64 0
v -64 -32 0
v -32 -32 0
v -64 -64 0
v -96 -64 0
v -96 -32 0
v -64 -32 0
v -96 -64 0
v -128 -64 0
v -128 -32 0
v -96 -32 0
v -128 -64 0
v -160 -64 0
v -160 -32 0
v -128 -32 0
v -160 -64 0
v -192 -64 0
v -192 -32 0
v -160 -32 0
v -192 -64 0
v -224 -64 0
v -224 -32 0
v -192 -32 0
v -416 -64 0
v -448 -64 0
v -448 -32 0
v -416 -32 0
v -448 -64 0
v -480 -64 0
v -480 -32 0
v -448 -32 0
v -480 -64 0
v -512 -64 0
v -512 -32 0
v -480 -32 0
v -512 -64 0
v -544 -64 0
v -544 -32 0
v -512 -32 0
v -544 -64 0
v -576 -64 0
v -576 -32 0
v -544 -32 0
v -576 -64 0
v -608 -64 0
v -608 -32 0
v -576 -32 0
v -32 -96 0
v -64 -96 0
v -64 -64 0
v -32 -64 0
v -64 -96 0
v -96 -96 0
v -96 -64 0
v -64 -64 0
v -96 -96 0
v -128 -96 0
v -128 -64 0
v -96 -64 0
v -128 -96 0
v -160 -96 0
v -160 -64 0
v -128 -64 0
v -160 -96 0
v -192 -96 0
v -192 -64 0
v -160 -64 0
v -192 -96 0
v -224 -96 0
v -224 -64 0
v -192 -64 0
v -416 -96 0
v -448 -96 0
v -448 -64 0
v -416 -64 0
v -448 -96 0
v -480 -96 0
v -480 -64 0
v -448 -64 0
v -480 -96 0
v -512 -96 0
v -512 -64 0
v -480 -64 0
v -512 -96 0
v -544 -96 0
v -544 -64 0
v -512 -64 0
v -544 -96 0
v -576 -96 0
v -576 -64 0
v -544 -64 0
v -576 -96 0
v -608 -96 0
v -608 -64 0
v -576 -64 0
v -128 -192 0
v -160 -192 0
v -160 -160 0
v -128 -160 0
v -160 -192 0
v -192 -192 0
v -192 -160 0
v -160 -160 0
v -192 -192 0
v -224 -192 0
v -224 -160 0
v -192 -160 0
v -224 -192 0
v -256 -192 0
v -256 -160 0
v -224 -160 0
v -256 -192 0
v -288 -192 0
v -288 -160 0
v -256 -160 0
v -288 -192 0
v -320 -192 0
v -320 -160 0
v -288 -160 0
v -320 -192 0
v -352 -192 0
v -352 -160 0
v -320 -160 0
v -352 -192 0
v -384 -192 0
v -384 -160 0
v -352 -160 0
v -384 -192 0
v -416 -192 0
v -416 -160 0
v -384 -160 0
v -416 -192 0
v -448 -192 0
v -448 -160 0
v -416 -160 0
v -448 -192 0
v -480 -192 0
v -480 -160 0
v -448 -160 0
v -480 -192 0
v -512 -192 0
v -512 -160 0
v -480 -160 0
v -128 -224 0
v -160 -224 0
v -160 -192 0
v -128 -192 0
v -160 -224 0
v -192 -224 0
v -192 -192 0
v -160 -192 0
v -192 -224 0
v -224 -224 0
v -224 -192 0
v -192 -192 0
v -224 -224 0
v -256 -224 0
v -256 -192 0
v -224 -192 0
v -256 -224 0
v -288 -224 0
v -288 -192 0
v -256 -192 0
v -288 -224 0
v -320 -224 0
v -320 -192 0
v -288 -192 0
v -320 -224 0
v -352 -224 0
v -352 -192 0
v -320 -192 0
v -352 -224 0
v -384 -224 0
v -384 -192 0
v -352 -192 0
v -384 -224 0
v -416 -224 0
v -416 -192 0
v -384 -192 0
v -416 -224 0
v -448 -224 0
v -448 -192 0
v -416 -192 0
v -448 -224 0
v -480 -224 0
v -480 -192 0
v -448 -192 0
v -480 -224 0
v -512 -224 0
v -512 -192 0
v -480 -192 0
v -128 -256 0
v -160 -256 0
v -160 -224 0
v -128 -224 0
v -160 -256 0
v -192 -256 0
v -192 -224 0
v -160 -224 0
v -192 -256 0
v -224 -256 0
v -224 -224 0
v -192 -224 0
v -224 -256 0
v -256 -256 0
v -256 -224 0
v -224 -224 0
v -256 -256 0
v -288 -256 0
v -288 -224 0
v -256 -224 0
v -288 -256 0
v -320 -256 0
v -320 -224 0
v -288 -224 0
v -320 -256 0
v -352 -256 0
v -352 -224 0
v -320 -224 0
v -352 -256 0
v -384 -256 0
v -384 -224 0
v -352 -224 0
v -384 -256 0
v -416 -256 0
v -416 -224 0
v -384 -224 0
v -416 -256 0
v -448 -256 0
v -448 -224 0
v -416 -224 0
v -448 -256 0
v -480 -256 0
v -480 -224 0
v -448 -224 0
v -480 -256 0
v -512 -256 0
v -512 -224 0
v -480 -224 0
v -128 -288 0
v -160 -288 0
v -160 -256 0
v -128 -256 0
v -160 -288 0
v -192 -288 0
v -192 -256 0
v -160 -256 0
v -448 -288 0
v -480 -288 0
v -480 -256 0
v -448 -256 0
v -480 -288 0
v -512 -288 0
v -512 -256 0
v -480 -256 0
v -128 -320 0
v -160 -320 0
v -160 -288 0
v -128 -288 0
v -160 -320 0
v -192 -320 0
v -192 -288 0
v -160 -288 0
v -448 -320 0
v -480 -320 0
v -480 -288 0
v -448 -288 0
v -480 -320 0
v -512 -320 0
v -512 -288 0
v -480 -288 0
v -128 -352 0
v -160 -352 0
v -160 -320 0
v -128 -320 0
v -160 -352 0
v -192 -352 0
v -192 -320 0
v -160 -320 0
v -448 -352 0
v -480 -352 0
v -480 -320 0
v -448 -320 0
v -480 -352 0
v -512 -352 0
v -512 -320 0
v -480 -320 0
v -32 -384 0
v -64 -384 0
v -64 -352 0
v -32 -352 0
v -128 -384 0
v -160 -384 0
v -160 -352 0
v -128 -352 0
v -160 -384 0
v -192 -384 0
v -192 -352 0
v -160 -352 0
v -448 -384 0
v -480 -384 0
v -480 -352 0
v -448 -352 0
v -480 -384 0
v -512 -384 0
v -512 -352 0
v -480 -352 0
v -32 -416 0
v -64 -416 0
v -64 -384 0
v -32 -384 0
v -128 -416 0
v -160 -416 0
v -160 -384 0
v -128 -384 0
v -160 -416 0
v -192 -416 0
v -192 -384 0
v -160 -384 0
v -448 -416 0
v -480 -416 0
v -480 -384 0
v -448 -384 0
v -480 -416 0
v -512 -416 0
v -512 -384 0
v -480 -384 0
v -32 -448 0
v -64 -448 0
v -64 -416 0
v -32 -416 0
v -128 -448 0
v -160 -448 0
v -160 -416 0
v -128 -416 0
v -160 -448 0
v -192 -448 0
v -192 -416 0
v -160 -416 0
v -448 -448 0
v -480 -448 0
v -480 -416 0
v -448 -416 0
v -480 -448 0
v -512 -448 0
v -512 -416 0
v -480 -416 0
v -32 -480 0
v -64 -480 0
v -64 -448 0
v -32 -448 0
v -128 -480 0
v -160 -480 0
v -160 -448 0
v -128 -448 0
v -160 -480 0
v -192 -480 0
v -192 -448 0
v -160 -448 0
v -448 -480 0
v -480 -480 0
v -480 -448 0
v -448 -448 0
v -480 -480 0
v -512 -480 0
v -512 -448 0
v -480 -448 0
v -32 -512 0
v -64 -512 0
v -64 -480 0
v -32 -480 0
v -32 -544 0
v -64 -544 0
v -64 -512 0
v -32 -512 0

# Texture cooridinates (Count = 44)
vt 0 0.3082707
vt 0.125 0.3082707
vt 0.125 0.3157895
vt 0 0.3157895
vt 0.25 0.3082707
vt 0.25 0.3157895
vt 0.375 0.3082707
vt 0.5 0.3082707
vt 0.5 0.3157895
vt 0.375 0.3157895
vt 0.625 0.3082707
vt 0.625 0.3157895
vt 0 0.2932331
vt 0.125 0.2932331
vt 0.125 0.3007519
vt 0 0.3007519
vt 0.25 0.2932331
vt 0.25 0.3007519
vt 0.375 0.3007519
vt 0.5 0.3007519
vt 0.625 0.3007519
vt 0 0.2857143
vt 0.125 0.2857143
vt 0.25 0.2857143
vt 0.75 0.3007519
vt 0.75 0.3082707
vt 0.875 0.3007519
vt 0.875 0.3082707
vt 1 0.3007519
vt 1 0.3082707
vt 0.625 0.2932331
vt 0.75 0.2932331
vt 0.875 0.2932331
vt 1 0.2932331
vt 0.75 0.2857143
vt 0.875 0.2857143
vt 0.375 0.007518768
vt 0.5 0.007518768
vt 0.5 0.0150376
vt 0.375 0.0150376
vt 0.375 0
vt 0.5 0
vt 0.625 0.2857143
vt 1 0.2857143

# Normal
vn 0 0 -1

# Mesh description
g armor-store_mesh_0004

# Faces
f 1/1/1 2/2/1 3/3/1 4/4/1
f 5/2/1 6/5/1 7/6/1 8/3/1
f 9/7/1 10/8/1 11/9/1 12/10/1
f 13/8/1 14/11/1 15/12/1 16/9/1
f 17/1/1 18/2/1 19/3/1 20/4/1
f 21/2/1 22/5/1 23/6/1 24/3/1
f 25/1/1 26/2/1 27/3/1 28/4/1
f 29/2/1 30/5/1 31/6/1 32/3/1
f 33/1/1 34/2/1 35/3/1 36/4/1
f 37/2/1 38/5/1 39/6/1 40/3/1
f 41/13/1 42/14/1 43/15/1 44/16/1
f 45/14/1 46/17/1 47/18/1 48/15/1
f 49/16/1 50/15/1 51/2/1 52/1/1
f 53/15/1 54/18/1 55/5/1 56/2/1
f 57/19/1 58/20/1 59/8/1 60/7/1
f 61/20/1 62/21/1 63/11/1 64/8/1
f 65/16/1 66/15/1 67/2/1 68/1/1
f 69/15/1 70/18/1 71/5/1 72/2/1
f 73/16/1 74/15/1 75/2/1 76/1/1
f 77/15/1 78/18/1 79/5/1 80/2/1
f 81/16/1 82/15/1 83/2/1 84/1/1
f 85/15/1 86/18/1 87/5/1 88/2/1
f 89/22/1 90/23/1 91/14/1 92/13/1
f 93/23/1 94/24/1 95/17/1 96/14/1
f 97/21/1 98/25/1 99/26/1 100/11/1
f 101/25/1 102/27/1 103/28/1 104/26/1
f 105/25/1 106/27/1 107/28/1 108/26/1
f 109/25/1 110/27/1 111/28/1 112/26/1
f 113/25/1 114/27/1 115/28/1 116/26/1
f 117/25/1 118/27/1 119/28/1 120/26/1
f 121/25/1 122/27/1 123/28/1 124/26/1
f 125/25/1 126/27/1 127/28/1 128/26/1
f 129/25/1 130/27/1 131/28/1 132/26/1
f 133/25/1 134/27/1 135/28/1 136/26/1
f 137/25/1 138/27/1 139/28/1 140/26/1
f 141/27/1 142/29/1 143/30/1 144/28/1
f 145/31/1 146/32/1 147/25/1 148/21/1
f 149/32/1 150/33/1 151/27/1 152/25/1
f 153/32/1 154/33/1 155/27/1 156/25/1
f 157/32/1 158/33/1 159/27/1 160/25/1
f 161/32/1 162/33/1 163/27/1 164/25/1
f 165/32/1 166/33/1 167/27/1 168/25/1
f 169/32/1 170/33/1 171/27/1 172/25/1
f 173/32/1 174/33/1 175/27/1 176/25/1
f 177/32/1 178/33/1 179/27/1 180/25/1
f 181/32/1 182/33/1 183/27/1 184/25/1
f 185/32/1 186/33/1 187/27/1 188/25/1
f 189/33/1 190/34/1 191/29/1 192/27/1
f 193/31/1 194/32/1 195/25/1 196/21/1
f 197/32/1 198/33/1 199/27/1 200/25/1
f 201/35/1 202/36/1 203/33/1 204/32/1
f 205/35/1 206/36/1 207/33/1 208/32/1
f 209/35/1 210/36/1 211/33/1 212/32/1
f 213/35/1 214/36/1 215/33/1 216/32/1
f 217/35/1 218/36/1 219/33/1 220/32/1
f 221/35/1 222/36/1 223/33/1 224/32/1
f 225/35/1 226/36/1 227/33/1 228/32/1
f 229/35/1 230/36/1 231/33/1 232/32/1
f 233/32/1 234/33/1 235/27/1 236/25/1
f 237/33/1 238/34/1 239/29/1 240/27/1
f 241/31/1 242/32/1 243/25/1 244/21/1
f 245/33/1 246/34/1 247/29/1 248/27/1
f 249/31/1 250/32/1 251/25/1 252/21/1
f 253/33/1 254/34/1 255/29/1 256/27/1
f 257/31/1 258/32/1 259/25/1 260/21/1
f 261/33/1 262/34/1 263/29/1 264/27/1
f 265/31/1 266/32/1 267/25/1 268/21/1
f 269/33/1 270/34/1 271/29/1 272/27/1
f 273/31/1 274/32/1 275/25/1 276/21/1
f 277/33/1 278/34/1 279/29/1 280/27/1
f 281/31/1 282/32/1 283/25/1 284/21/1
f 285/33/1 286/34/1 287/29/1 288/27/1
f 289/37/1 290/38/1 291/39/1 292/40/1
f 293/31/1 294/32/1 295/25/1 296/21/1
f 297/33/1 298/34/1 299/29/1 300/27/1
f 301/31/1 302/32/1 303/25/1 304/21/1
f 305/33/1 306/34/1 307/29/1 308/27/1
f 309/41/1 310/42/1 311/38/1 312/37/1
f 313/31/1 314/32/1 315/25/1 316/21/1
f 317/33/1 318/34/1 319/29/1 320/27/1
f 321/31/1 322/32/1 323/25/1 324/21/1
f 325/33/1 326/34/1 327/29/1 328/27/1
f 329/37/1 330/38/1 331/39/1 332/40/1
f 333/31/1 334/32/1 335/25/1 336/21/1
f 337/33/1 338/34/1 339/29/1 340/27/1
f 341/31/1 342/32/1 343/25/1 344/21/1
f 345/33/1 346/34/1 347/29/1 348/27/1
f 349/41/1 350/42/1 351/38/1 352/37/1
f 353/43/1 354/35/1 355/32/1 356/31/1
f 357/36/1 358/44/1 359/34/1 360/33/1
f 361/43/1 362/35/1 363/32/1 364/31/1
f 365/36/1 366/44/1 367/34/1 368/33/1
f 369/37/1 370/38/1 371/39/1 372/40/1
f 373/41/1 374/42/1 375/38/1 376/37/1

