# Tiled2Unity generated file. Do not modify by hand.
# Wavefront file for 'armor-store_mesh_0005.obj'

# Vertices (Count = 48)
v 0 -128 0
v -32 -128 0
v -32 -96 0
v 0 -96 0
v -608 -128 0
v -640 -128 0
v -640 -96 0
v -608 -96 0
v 0 -160 0
v -32 -160 0
v -32 -128 0
v 0 -128 0
v -608 -160 0
v -640 -160 0
v -640 -128 0
v -608 -128 0
v 0 -512 0
v -32 -512 0
v -32 -480 0
v 0 -480 0
v -608 -512 0
v -640 -512 0
v -640 -480 0
v -608 -480 0
v 0 -544 0
v -32 -544 0
v -32 -512 0
v 0 -512 0
v -192 -544 0
v -224 -544 0
v -224 -512 0
v -192 -512 0
v -416 -544 0
v -448 -544 0
v -448 -512 0
v -416 -512 0
v -608 -544 0
v -640 -544 0
v -640 -512 0
v -608 -512 0
v -192 -576 0
v -224 -576 0
v -224 -544 0
v -192 -544 0
v -416 -576 0
v -448 -576 0
v -448 -544 0
v -416 -544 0

# Texture cooridinates (Count = 6)
vt 0.875 0.28125
vt 0.90625 0.28125
vt 0.90625 0.3125
vt 0.875 0.3125
vt 0.875 0.25
vt 0.90625 0.25

# Normal
vn 0 0 -1

# Mesh description
g armor-store_mesh_0005

# Faces
f 1/1/1 2/2/1 3/3/1 4/4/1
f 5/1/1 6/2/1 7/3/1 8/4/1
f 9/5/1 10/6/1 11/2/1 12/1/1
f 13/5/1 14/6/1 15/2/1 16/1/1
f 17/1/1 18/2/1 19/3/1 20/4/1
f 21/1/1 22/2/1 23/3/1 24/4/1
f 25/5/1 26/6/1 27/2/1 28/1/1
f 29/1/1 30/2/1 31/3/1 32/4/1
f 33/1/1 34/2/1 35/3/1 36/4/1
f 37/5/1 38/6/1 39/2/1 40/1/1
f 41/5/1 42/6/1 43/2/1 44/1/1
f 45/5/1 46/6/1 47/2/1 48/1/1

