# Tiled2Unity generated file. Do not modify by hand.
# Wavefront file for 'armor-store_mesh_0007.obj'

# Vertices (Count = 88)
v -32 -64 0
v -64 -64 0
v -64 -32 0
v -32 -32 0
v -64 -64 0
v -96 -64 0
v -96 -32 0
v -64 -32 0
v -96 -64 0
v -128 -64 0
v -128 -32 0
v -96 -32 0
v -128 -64 0
v -160 -64 0
v -160 -32 0
v -128 -32 0
v -160 -64 0
v -192 -64 0
v -192 -32 0
v -160 -32 0
v -192 -64 0
v -224 -64 0
v -224 -32 0
v -192 -32 0
v -416 -64 0
v -448 -64 0
v -448 -32 0
v -416 -32 0
v -448 -64 0
v -480 -64 0
v -480 -32 0
v -448 -32 0
v -480 -64 0
v -512 -64 0
v -512 -32 0
v -480 -32 0
v -512 -64 0
v -544 -64 0
v -544 -32 0
v -512 -32 0
v -544 -64 0
v -576 -64 0
v -576 -32 0
v -544 -32 0
v -576 -64 0
v -608 -64 0
v -608 -32 0
v -576 -32 0
v -288 -224 0
v -320 -224 0
v -320 -192 0
v -288 -192 0
v -128 -256 0
v -160 -256 0
v -160 -224 0
v -128 -224 0
v -128 -320 0
v -160 -320 0
v -160 -288 0
v -128 -288 0
v -160 -320 0
v -192 -320 0
v -192 -288 0
v -160 -288 0
v -448 -320 0
v -480 -320 0
v -480 -288 0
v -448 -288 0
v -448 -352 0
v -480 -352 0
v -480 -320 0
v -448 -320 0
v -448 -384 0
v -480 -384 0
v -480 -352 0
v -448 -352 0
v -32 -416 0
v -64 -416 0
v -64 -384 0
v -32 -384 0
v -32 -480 0
v -64 -480 0
v -64 -448 0
v -32 -448 0
v -32 -544 0
v -64 -544 0
v -64 -512 0
v -32 -512 0

# Texture cooridinates (Count = 32)
vt 0.5302144 0.5009747
vt 0.5614035 0.5009747
vt 0.5614035 0.5321637
vt 0.5302144 0.5321637
vt 0.4990253 0.5009747
vt 0.4990253 0.5321637
vt 0.5925926 0.5009747
vt 0.5925926 0.5321637
vt 0.6237817 0.5009747
vt 0.6237817 0.5321637
vt 0.6549708 0.5009747
vt 0.6549708 0.5321637
vt 0.9356725 0.5009747
vt 0.9668616 0.5009747
vt 0.9668616 0.5321637
vt 0.9356725 0.5321637
vt 0.9668616 0.6569201
vt 0.9980507 0.6569201
vt 0.9980507 0.6881092
vt 0.9668616 0.6881092
vt 0.9044834 0.5633528
vt 0.9356725 0.5633528
vt 0.9356725 0.5945419
vt 0.9044834 0.5945419
vt 0.8732944 0.5633528
vt 0.8732944 0.5945419
vt 0.8732944 0.6569201
vt 0.9044834 0.6569201
vt 0.9044834 0.6881092
vt 0.8732944 0.6881092
vt 0.9356725 0.6569201
vt 0.9356725 0.6881092

# Normal
vn 0 0 -1

# Mesh description
g armor-store_mesh_0007

# Faces
f 1/1/1 2/2/1 3/3/1 4/4/1
f 5/5/1 6/1/1 7/4/1 8/6/1
f 9/2/1 10/7/1 11/8/1 12/3/1
f 13/1/1 14/2/1 15/3/1 16/4/1
f 17/2/1 18/7/1 19/8/1 20/3/1
f 21/2/1 22/7/1 23/8/1 24/3/1
f 25/7/1 26/9/1 27/10/1 28/8/1
f 29/9/1 30/11/1 31/12/1 32/10/1
f 33/1/1 34/2/1 35/3/1 36/4/1
f 37/2/1 38/7/1 39/8/1 40/3/1
f 41/7/1 42/9/1 43/10/1 44/8/1
f 45/9/1 46/11/1 47/12/1 48/10/1
f 49/13/1 50/14/1 51/15/1 52/16/1
f 53/17/1 54/18/1 55/19/1 56/20/1
f 57/21/1 58/22/1 59/23/1 60/24/1
f 61/25/1 62/21/1 63/24/1 64/26/1
f 65/27/1 66/28/1 67/29/1 68/30/1
f 69/28/1 70/31/1 71/32/1 72/29/1
f 73/31/1 74/17/1 75/20/1 76/32/1
f 77/17/1 78/18/1 79/19/1 80/20/1
f 81/17/1 82/18/1 83/19/1 84/20/1
f 85/31/1 86/17/1 87/20/1 88/32/1

