# Tiled2Unity generated file. Do not modify by hand.
# Wavefront file for 'armor-store_mesh_0009.obj'

# Vertices (Count = 196)
v -32 -64 0
v -64 -64 0
v -64 -32 0
v -32 -32 0
v -576 -64 0
v -608 -64 0
v -608 -32 0
v -576 -32 0
v -32 -96 0
v -64 -96 0
v -64 -64 0
v -32 -64 0
v -576 -96 0
v -608 -96 0
v -608 -64 0
v -576 -64 0
v -32 -128 0
v -64 -128 0
v -64 -96 0
v -32 -96 0
v -576 -128 0
v -608 -128 0
v -608 -96 0
v -576 -96 0
v -32 -160 0
v -64 -160 0
v -64 -128 0
v -32 -128 0
v -576 -160 0
v -608 -160 0
v -608 -128 0
v -576 -128 0
v -32 -192 0
v -64 -192 0
v -64 -160 0
v -32 -160 0
v -512 -192 0
v -544 -192 0
v -544 -160 0
v -512 -160 0
v -576 -192 0
v -608 -192 0
v -608 -160 0
v -576 -160 0
v -32 -224 0
v -64 -224 0
v -64 -192 0
v -32 -192 0
v -512 -224 0
v -544 -224 0
v -544 -192 0
v -512 -192 0
v -576 -224 0
v -608 -224 0
v -608 -192 0
v -576 -192 0
v -32 -256 0
v -64 -256 0
v -64 -224 0
v -32 -224 0
v -512 -256 0
v -544 -256 0
v -544 -224 0
v -512 -224 0
v -576 -256 0
v -608 -256 0
v -608 -224 0
v -576 -224 0
v -32 -288 0
v -64 -288 0
v -64 -256 0
v -32 -256 0
v -192 -288 0
v -224 -288 0
v -224 -256 0
v -192 -256 0
v -512 -288 0
v -544 -288 0
v -544 -256 0
v -512 -256 0
v -576 -288 0
v -608 -288 0
v -608 -256 0
v -576 -256 0
v -32 -320 0
v -64 -320 0
v -64 -288 0
v -32 -288 0
v -192 -320 0
v -224 -320 0
v -224 -288 0
v -192 -288 0
v -512 -320 0
v -544 -320 0
v -544 -288 0
v -512 -288 0
v -576 -320 0
v -608 -320 0
v -608 -288 0
v -576 -288 0
v -32 -352 0
v -64 -352 0
v -64 -320 0
v -32 -320 0
v -192 -352 0
v -224 -352 0
v -224 -320 0
v -192 -320 0
v -512 -352 0
v -544 -352 0
v -544 -320 0
v -512 -320 0
v -576 -352 0
v -608 -352 0
v -608 -320 0
v -576 -320 0
v -32 -384 0
v -64 -384 0
v -64 -352 0
v -32 -352 0
v -192 -384 0
v -224 -384 0
v -224 -352 0
v -192 -352 0
v -512 -384 0
v -544 -384 0
v -544 -352 0
v -512 -352 0
v -576 -384 0
v -608 -384 0
v -608 -352 0
v -576 -352 0
v -32 -416 0
v -64 -416 0
v -64 -384 0
v -32 -384 0
v -192 -416 0
v -224 -416 0
v -224 -384 0
v -192 -384 0
v -512 -416 0
v -544 -416 0
v -544 -384 0
v -512 -384 0
v -576 -416 0
v -608 -416 0
v -608 -384 0
v -576 -384 0
v -32 -448 0
v -64 -448 0
v -64 -416 0
v -32 -416 0
v -192 -448 0
v -224 -448 0
v -224 -416 0
v -192 -416 0
v -512 -448 0
v -544 -448 0
v -544 -416 0
v -512 -416 0
v -576 -448 0
v -608 -448 0
v -608 -416 0
v -576 -416 0
v -32 -480 0
v -64 -480 0
v -64 -448 0
v -32 -448 0
v -192 -480 0
v -224 -480 0
v -224 -448 0
v -192 -448 0
v -512 -480 0
v -544 -480 0
v -544 -448 0
v -512 -448 0
v -576 -480 0
v -608 -480 0
v -608 -448 0
v -576 -448 0
v -32 -512 0
v -64 -512 0
v -64 -480 0
v -32 -480 0
v -576 -512 0
v -608 -512 0
v -608 -480 0
v -576 -480 0
v -32 -544 0
v -64 -544 0
v -64 -512 0
v -32 -512 0
v -576 -544 0
v -608 -544 0
v -608 -512 0
v -576 -512 0

# Texture cooridinates (Count = 8)
vt 0.03118908 0.8752437
vt 0.06237817 0.8752437
vt 0.06237817 0.9064327
vt 0.03118908 0.9064327
vt 0.06237817 0.7192982
vt 0.09356725 0.7192982
vt 0.09356725 0.7504873
vt 0.06237817 0.7504873

# Normal
vn 0 0 -1

# Mesh description
g armor-store_mesh_0009

# Faces
f 1/1/1 2/2/1 3/3/1 4/4/1
f 5/3/1 6/4/1 7/1/1 8/2/1
f 9/1/1 10/2/1 11/3/1 12/4/1
f 13/3/1 14/4/1 15/1/1 16/2/1
f 17/1/1 18/2/1 19/3/1 20/4/1
f 21/3/1 22/4/1 23/1/1 24/2/1
f 25/1/1 26/2/1 27/3/1 28/4/1
f 29/3/1 30/4/1 31/1/1 32/2/1
f 33/1/1 34/2/1 35/3/1 36/4/1
f 37/5/1 38/6/1 39/7/1 40/8/1
f 41/3/1 42/4/1 43/1/1 44/2/1
f 45/1/1 46/2/1 47/3/1 48/4/1
f 49/5/1 50/6/1 51/7/1 52/8/1
f 53/3/1 54/4/1 55/1/1 56/2/1
f 57/1/1 58/2/1 59/3/1 60/4/1
f 61/5/1 62/6/1 63/7/1 64/8/1
f 65/3/1 66/4/1 67/1/1 68/2/1
f 69/1/1 70/2/1 71/3/1 72/4/1
f 73/5/1 74/6/1 75/7/1 76/8/1
f 77/5/1 78/6/1 79/7/1 80/8/1
f 81/3/1 82/4/1 83/1/1 84/2/1
f 85/1/1 86/2/1 87/3/1 88/4/1
f 89/5/1 90/6/1 91/7/1 92/8/1
f 93/5/1 94/6/1 95/7/1 96/8/1
f 97/3/1 98/4/1 99/1/1 100/2/1
f 101/1/1 102/2/1 103/3/1 104/4/1
f 105/5/1 106/6/1 107/7/1 108/8/1
f 109/5/1 110/6/1 111/7/1 112/8/1
f 113/3/1 114/4/1 115/1/1 116/2/1
f 117/1/1 118/2/1 119/3/1 120/4/1
f 121/5/1 122/6/1 123/7/1 124/8/1
f 125/5/1 126/6/1 127/7/1 128/8/1
f 129/3/1 130/4/1 131/1/1 132/2/1
f 133/1/1 134/2/1 135/3/1 136/4/1
f 137/5/1 138/6/1 139/7/1 140/8/1
f 141/5/1 142/6/1 143/7/1 144/8/1
f 145/3/1 146/4/1 147/1/1 148/2/1
f 149/1/1 150/2/1 151/3/1 152/4/1
f 153/5/1 154/6/1 155/7/1 156/8/1
f 157/5/1 158/6/1 159/7/1 160/8/1
f 161/3/1 162/4/1 163/1/1 164/2/1
f 165/1/1 166/2/1 167/3/1 168/4/1
f 169/5/1 170/6/1 171/7/1 172/8/1
f 173/5/1 174/6/1 175/7/1 176/8/1
f 177/3/1 178/4/1 179/1/1 180/2/1
f 181/1/1 182/2/1 183/3/1 184/4/1
f 185/3/1 186/4/1 187/1/1 188/2/1
f 189/1/1 190/2/1 191/3/1 192/4/1
f 193/3/1 194/4/1 195/1/1 196/2/1

