# Tiled2Unity generated file. Do not modify by hand.
# Wavefront file for 'armor-store_mesh_0003.obj'

# Vertices (Count = 20)
v -224 -64 0
v -256 -64 0
v -256 -32 0
v -224 -32 0
v -224 -96 0
v -256 -96 0
v -256 -64 0
v -224 -64 0
v -192 -256 0
v -224 -256 0
v -224 -224 0
v -192 -224 0
v -160 -480 0
v -192 -480 0
v -192 -448 0
v -160 -448 0
v -480 -480 0
v -512 -480 0
v -512 -448 0
v -480 -448 0

# Texture cooridinates (Count = 4)
vt 0.06237817 0.7192982
vt 0.09356725 0.7192982
vt 0.09356725 0.7504873
vt 0.06237817 0.7504873

# Normal
vn 0 0 -1

# Mesh description
g armor-store_mesh_0003

# Faces
f 1/1/1 2/2/1 3/3/1 4/4/1
f 5/1/1 6/2/1 7/3/1 8/4/1
f 9/1/1 10/2/1 11/3/1 12/4/1
f 13/3/1 14/4/1 15/1/1 16/2/1
f 17/3/1 18/4/1 19/1/1 20/2/1

