# Tiled2Unity generated file. Do not modify by hand.
# Wavefront file for 'Library_mesh_0011.obj'

# Vertices (Count = 24)
v -64 -288 0
v -96 -288 0
v -96 -256 0
v -64 -256 0
v -608 -288 0
v -640 -288 0
v -640 -256 0
v -608 -256 0
v -64 -416 0
v -96 -416 0
v -96 -384 0
v -64 -384 0
v -608 -416 0
v -640 -416 0
v -640 -384 0
v -608 -384 0
v -64 -576 0
v -96 -576 0
v -96 -544 0
v -64 -544 0
v -608 -576 0
v -640 -576 0
v -640 -544 0
v -608 -544 0

# Texture cooridinates (Count = 4)
vt 0.3125 0.34375
vt 0.28125 0.34375
vt 0.28125 0.375
vt 0.3125 0.375

# Normal
vn 0 0 -1

# Mesh description
g Library_mesh_0011

# Faces
f 1/1/1 2/2/1 3/3/1 4/4/1
f 5/2/1 6/1/1 7/4/1 8/3/1
f 9/1/1 10/2/1 11/3/1 12/4/1
f 13/2/1 14/1/1 15/4/1 16/3/1
f 17/1/1 18/2/1 19/3/1 20/4/1
f 21/2/1 22/1/1 23/4/1 24/3/1

