# Tiled2Unity generated file. Do not modify by hand.
# Wavefront file for 'Library_mesh_0007.obj'

# Vertices (Count = 184)
v -64 -128 0
v -96 -128 0
v -96 -96 0
v -64 -96 0
v -224 -128 0
v -256 -128 0
v -256 -96 0
v -224 -96 0
v -256 -128 0
v -288 -128 0
v -288 -96 0
v -256 -96 0
v -416 -128 0
v -448 -128 0
v -448 -96 0
v -416 -96 0
v -448 -128 0
v -480 -128 0
v -480 -96 0
v -448 -96 0
v -608 -128 0
v -640 -128 0
v -640 -96 0
v -608 -96 0
v -64 -160 0
v -96 -160 0
v -96 -128 0
v -64 -128 0
v -576 -160 0
v -608 -160 0
v -608 -128 0
v -576 -128 0
v -608 -160 0
v -640 -160 0
v -640 -128 0
v -608 -128 0
v -64 -192 0
v -96 -192 0
v -96 -160 0
v -64 -160 0
v -608 -192 0
v -640 -192 0
v -640 -160 0
v -608 -160 0
v -64 -224 0
v -96 -224 0
v -96 -192 0
v -64 -192 0
v -608 -224 0
v -640 -224 0
v -640 -192 0
v -608 -192 0
v -64 -256 0
v -96 -256 0
v -96 -224 0
v -64 -224 0
v -608 -256 0
v -640 -256 0
v -640 -224 0
v -608 -224 0
v -64 -288 0
v -96 -288 0
v -96 -256 0
v -64 -256 0
v -608 -288 0
v -640 -288 0
v -640 -256 0
v -608 -256 0
v -64 -320 0
v -96 -320 0
v -96 -288 0
v -64 -288 0
v -608 -320 0
v -640 -320 0
v -640 -288 0
v -608 -288 0
v -64 -352 0
v -96 -352 0
v -96 -320 0
v -64 -320 0
v -608 -352 0
v -640 -352 0
v -640 -320 0
v -608 -320 0
v -64 -384 0
v -96 -384 0
v -96 -352 0
v -64 -352 0
v -608 -384 0
v -640 -384 0
v -640 -352 0
v -608 -352 0
v -64 -416 0
v -96 -416 0
v -96 -384 0
v -64 -384 0
v -608 -416 0
v -640 -416 0
v -640 -384 0
v -608 -384 0
v -64 -448 0
v -96 -448 0
v -96 -416 0
v -64 -416 0
v -608 -448 0
v -640 -448 0
v -640 -416 0
v -608 -416 0
v -64 -480 0
v -96 -480 0
v -96 -448 0
v -64 -448 0
v -608 -480 0
v -640 -480 0
v -640 -448 0
v -608 -448 0
v -64 -512 0
v -96 -512 0
v -96 -480 0
v -64 -480 0
v -608 -512 0
v -640 -512 0
v -640 -480 0
v -608 -480 0
v -64 -544 0
v -96 -544 0
v -96 -512 0
v -64 -512 0
v -608 -544 0
v -640 -544 0
v -640 -512 0
v -608 -512 0
v -64 -576 0
v -96 -576 0
v -96 -544 0
v -64 -544 0
v -608 -576 0
v -640 -576 0
v -640 -544 0
v -608 -544 0
v -64 -608 0
v -96 -608 0
v -96 -576 0
v -64 -576 0
v -608 -608 0
v -640 -608 0
v -640 -576 0
v -608 -576 0
v -224 -672 0
v -256 -672 0
v -256 -640 0
v -224 -640 0
v -256 -672 0
v -288 -672 0
v -288 -640 0
v -256 -640 0
v -288 -672 0
v -320 -672 0
v -320 -640 0
v -288 -640 0
v -320 -672 0
v -352 -672 0
v -352 -640 0
v -320 -640 0
v -352 -672 0
v -384 -672 0
v -384 -640 0
v -352 -640 0
v -384 -672 0
v -416 -672 0
v -416 -640 0
v -384 -640 0
v -416 -672 0
v -448 -672 0
v -448 -640 0
v -416 -640 0
v -448 -672 0
v -480 -672 0
v -480 -640 0
v -448 -640 0
v -672 -672 0
v -704 -672 0
v -704 -640 0
v -672 -640 0

# Texture cooridinates (Count = 18)
vt 0.09375 0.34375
vt 0.125 0.34375
vt 0.125 0.375
vt 0.09375 0.375
vt 0.65625 0.4375
vt 0.6875 0.4375
vt 0.6875 0.46875
vt 0.65625 0.46875
vt 0.09375 0.3125
vt 0.125 0.3125
vt 0.09375 0.28125
vt 0.125 0.28125
vt 0.09375 0.25
vt 0.125 0.25
vt 0.875 0.8125
vt 0.90625 0.8125
vt 0.90625 0.84375
vt 0.875 0.84375

# Normal
vn 0 0 -1

# Mesh description
g Library_mesh_0007

# Faces
f 1/1/1 2/2/1 3/3/1 4/4/1
f 5/5/1 6/6/1 7/7/1 8/8/1
f 9/5/1 10/6/1 11/7/1 12/8/1
f 13/5/1 14/6/1 15/7/1 16/8/1
f 17/5/1 18/6/1 19/7/1 20/8/1
f 21/2/1 22/1/1 23/4/1 24/3/1
f 25/9/1 26/10/1 27/2/1 28/1/1
f 29/5/1 30/6/1 31/7/1 32/8/1
f 33/10/1 34/9/1 35/1/1 36/2/1
f 37/11/1 38/12/1 39/10/1 40/9/1
f 41/12/1 42/11/1 43/9/1 44/10/1
f 45/13/1 46/14/1 47/12/1 48/11/1
f 49/14/1 50/13/1 51/11/1 52/12/1
f 53/1/1 54/2/1 55/3/1 56/4/1
f 57/2/1 58/1/1 59/4/1 60/3/1
f 61/9/1 62/10/1 63/2/1 64/1/1
f 65/10/1 66/9/1 67/1/1 68/2/1
f 69/11/1 70/12/1 71/10/1 72/9/1
f 73/12/1 74/11/1 75/9/1 76/10/1
f 77/13/1 78/14/1 79/12/1 80/11/1
f 81/14/1 82/13/1 83/11/1 84/12/1
f 85/1/1 86/2/1 87/3/1 88/4/1
f 89/2/1 90/1/1 91/4/1 92/3/1
f 93/9/1 94/10/1 95/2/1 96/1/1
f 97/10/1 98/9/1 99/1/1 100/2/1
f 101/11/1 102/12/1 103/10/1 104/9/1
f 105/12/1 106/11/1 107/9/1 108/10/1
f 109/13/1 110/14/1 111/12/1 112/11/1
f 113/14/1 114/13/1 115/11/1 116/12/1
f 117/1/1 118/2/1 119/3/1 120/4/1
f 121/2/1 122/1/1 123/4/1 124/3/1
f 125/9/1 126/10/1 127/2/1 128/1/1
f 129/10/1 130/9/1 131/1/1 132/2/1
f 133/11/1 134/12/1 135/10/1 136/9/1
f 137/12/1 138/11/1 139/9/1 140/10/1
f 141/13/1 142/14/1 143/12/1 144/11/1
f 145/14/1 146/13/1 147/11/1 148/12/1
f 149/15/1 150/16/1 151/17/1 152/18/1
f 153/15/1 154/16/1 155/17/1 156/18/1
f 157/15/1 158/16/1 159/17/1 160/18/1
f 161/15/1 162/16/1 163/17/1 164/18/1
f 165/15/1 166/16/1 167/17/1 168/18/1
f 169/15/1 170/16/1 171/17/1 172/18/1
f 173/15/1 174/16/1 175/17/1 176/18/1
f 177/15/1 178/16/1 179/17/1 180/18/1
f 181/15/1 182/16/1 183/17/1 184/18/1

