# Tiled2Unity generated file. Do not modify by hand.
# Wavefront file for 'Library_mesh_0009.obj'

# Vertices (Count = 132)
v -608 -96 0
v -640 -96 0
v -640 -64 0
v -608 -64 0
v -128 -448 0
v -160 -448 0
v -160 -416 0
v -128 -416 0
v -192 -448 0
v -224 -448 0
v -224 -416 0
v -192 -416 0
v -256 -448 0
v -288 -448 0
v -288 -416 0
v -256 -416 0
v -416 -448 0
v -448 -448 0
v -448 -416 0
v -416 -416 0
v -480 -448 0
v -512 -448 0
v -512 -416 0
v -480 -416 0
v -544 -448 0
v -576 -448 0
v -576 -416 0
v -544 -416 0
v -128 -480 0
v -160 -480 0
v -160 -448 0
v -128 -448 0
v -160 -480 0
v -192 -480 0
v -192 -448 0
v -160 -448 0
v -192 -480 0
v -224 -480 0
v -224 -448 0
v -192 -448 0
v -224 -480 0
v -256 -480 0
v -256 -448 0
v -224 -448 0
v -256 -480 0
v -288 -480 0
v -288 -448 0
v -256 -448 0
v -416 -480 0
v -448 -480 0
v -448 -448 0
v -416 -448 0
v -448 -480 0
v -480 -480 0
v -480 -448 0
v -448 -448 0
v -480 -480 0
v -512 -480 0
v -512 -448 0
v -480 -448 0
v -512 -480 0
v -544 -480 0
v -544 -448 0
v -512 -448 0
v -544 -480 0
v -576 -480 0
v -576 -448 0
v -544 -448 0
v -128 -512 0
v -160 -512 0
v -160 -480 0
v -128 -480 0
v -160 -512 0
v -192 -512 0
v -192 -480 0
v -160 -480 0
v -192 -512 0
v -224 -512 0
v -224 -480 0
v -192 -480 0
v -224 -512 0
v -256 -512 0
v -256 -480 0
v -224 -480 0
v -256 -512 0
v -288 -512 0
v -288 -480 0
v -256 -480 0
v -416 -512 0
v -448 -512 0
v -448 -480 0
v -416 -480 0
v -448 -512 0
v -480 -512 0
v -480 -480 0
v -448 -480 0
v -480 -512 0
v -512 -512 0
v -512 -480 0
v -480 -480 0
v -512 -512 0
v -544 -512 0
v -544 -480 0
v -512 -480 0
v -544 -512 0
v -576 -512 0
v -576 -480 0
v -544 -480 0
v -128 -544 0
v -160 -544 0
v -160 -512 0
v -128 -512 0
v -192 -544 0
v -224 -544 0
v -224 -512 0
v -192 -512 0
v -256 -544 0
v -288 -544 0
v -288 -512 0
v -256 -512 0
v -416 -544 0
v -448 -544 0
v -448 -512 0
v -416 -512 0
v -480 -544 0
v -512 -544 0
v -512 -512 0
v -480 -512 0
v -544 -544 0
v -576 -544 0
v -576 -512 0
v -544 -512 0

# Texture cooridinates (Count = 24)
vt 0 0.2330827
vt 0.125 0.2330827
vt 0.125 0.2406015
vt 0 0.2406015
vt 0.25 0.2857143
vt 0.375 0.2857143
vt 0.375 0.2932331
vt 0.25 0.2932331
vt 0.625 0.3007519
vt 0.75 0.3007519
vt 0.75 0.3082707
vt 0.625 0.3082707
vt 0.875 0.3007519
vt 0.875 0.3082707
vt 1 0.3007519
vt 1 0.3082707
vt 0.625 0.2857143
vt 0.75 0.2857143
vt 0.75 0.2932331
vt 0.625 0.2932331
vt 0.875 0.2857143
vt 0.875 0.2932331
vt 1 0.2857143
vt 1 0.2932331

# Normal
vn 0 0 -1

# Mesh description
g Library_mesh_0009

# Faces
f 1/1/1 2/2/1 3/3/1 4/4/1
f 5/5/1 6/6/1 7/7/1 8/8/1
f 9/5/1 10/6/1 11/7/1 12/8/1
f 13/5/1 14/6/1 15/7/1 16/8/1
f 17/5/1 18/6/1 19/7/1 20/8/1
f 21/5/1 22/6/1 23/7/1 24/8/1
f 25/5/1 26/6/1 27/7/1 28/8/1
f 29/9/1 30/10/1 31/11/1 32/12/1
f 33/10/1 34/13/1 35/14/1 36/11/1
f 37/10/1 38/13/1 39/14/1 40/11/1
f 41/10/1 42/13/1 43/14/1 44/11/1
f 45/13/1 46/15/1 47/16/1 48/14/1
f 49/9/1 50/10/1 51/11/1 52/12/1
f 53/10/1 54/13/1 55/14/1 56/11/1
f 57/10/1 58/13/1 59/14/1 60/11/1
f 61/10/1 62/13/1 63/14/1 64/11/1
f 65/13/1 66/15/1 67/16/1 68/14/1
f 69/17/1 70/18/1 71/19/1 72/20/1
f 73/18/1 74/21/1 75/22/1 76/19/1
f 77/18/1 78/21/1 79/22/1 80/19/1
f 81/18/1 82/21/1 83/22/1 84/19/1
f 85/21/1 86/23/1 87/24/1 88/22/1
f 89/17/1 90/18/1 91/19/1 92/20/1
f 93/18/1 94/21/1 95/22/1 96/19/1
f 97/18/1 98/21/1 99/22/1 100/19/1
f 101/18/1 102/21/1 103/22/1 104/19/1
f 105/21/1 106/23/1 107/24/1 108/22/1
f 109/5/1 110/6/1 111/7/1 112/8/1
f 113/5/1 114/6/1 115/7/1 116/8/1
f 117/5/1 118/6/1 119/7/1 120/8/1
f 121/5/1 122/6/1 123/7/1 124/8/1
f 125/5/1 126/6/1 127/7/1 128/8/1
f 129/5/1 130/6/1 131/7/1 132/8/1

