# Tiled2Unity generated file. Do not modify by hand.
# Wavefront file for 'Library_mesh_0012.obj'

# Vertices (Count = 256)
v -64 -128 0
v -96 -128 0
v -96 -96 0
v -64 -96 0
v -608 -128 0
v -640 -128 0
v -640 -96 0
v -608 -96 0
v -64 -160 0
v -96 -160 0
v -96 -128 0
v -64 -128 0
v -608 -160 0
v -640 -160 0
v -640 -128 0
v -608 -128 0
v -64 -192 0
v -96 -192 0
v -96 -160 0
v -64 -160 0
v -608 -192 0
v -640 -192 0
v -640 -160 0
v -608 -160 0
v -64 -224 0
v -96 -224 0
v -96 -192 0
v -64 -192 0
v -608 -224 0
v -640 -224 0
v -640 -192 0
v -608 -192 0
v -64 -256 0
v -96 -256 0
v -96 -224 0
v -64 -224 0
v -608 -256 0
v -640 -256 0
v -640 -224 0
v -608 -224 0
v -64 -288 0
v -96 -288 0
v -96 -256 0
v -64 -256 0
v -128 -288 0
v -160 -288 0
v -160 -256 0
v -128 -256 0
v -160 -288 0
v -192 -288 0
v -192 -256 0
v -160 -256 0
v -192 -288 0
v -224 -288 0
v -224 -256 0
v -192 -256 0
v -224 -288 0
v -256 -288 0
v -256 -256 0
v -224 -256 0
v -256 -288 0
v -288 -288 0
v -288 -256 0
v -256 -256 0
v -416 -288 0
v -448 -288 0
v -448 -256 0
v -416 -256 0
v -448 -288 0
v -480 -288 0
v -480 -256 0
v -448 -256 0
v -480 -288 0
v -512 -288 0
v -512 -256 0
v -480 -256 0
v -512 -288 0
v -544 -288 0
v -544 -256 0
v -512 -256 0
v -544 -288 0
v -576 -288 0
v -576 -256 0
v -544 -256 0
v -608 -288 0
v -640 -288 0
v -640 -256 0
v -608 -256 0
v -64 -320 0
v -96 -320 0
v -96 -288 0
v -64 -288 0
v -608 -320 0
v -640 -320 0
v -640 -288 0
v -608 -288 0
v -64 -352 0
v -96 -352 0
v -96 -320 0
v -64 -320 0
v -608 -352 0
v -640 -352 0
v -640 -320 0
v -608 -320 0
v -64 -384 0
v -96 -384 0
v -96 -352 0
v -64 -352 0
v -608 -384 0
v -640 -384 0
v -640 -352 0
v -608 -352 0
v -64 -416 0
v -96 -416 0
v -96 -384 0
v -64 -384 0
v -128 -416 0
v -160 -416 0
v -160 -384 0
v -128 -384 0
v -160 -416 0
v -192 -416 0
v -192 -384 0
v -160 -384 0
v -192 -416 0
v -224 -416 0
v -224 -384 0
v -192 -384 0
v -224 -416 0
v -256 -416 0
v -256 -384 0
v -224 -384 0
v -256 -416 0
v -288 -416 0
v -288 -384 0
v -256 -384 0
v -416 -416 0
v -448 -416 0
v -448 -384 0
v -416 -384 0
v -448 -416 0
v -480 -416 0
v -480 -384 0
v -448 -384 0
v -480 -416 0
v -512 -416 0
v -512 -384 0
v -480 -384 0
v -512 -416 0
v -544 -416 0
v -544 -384 0
v -512 -384 0
v -544 -416 0
v -576 -416 0
v -576 -384 0
v -544 -384 0
v -608 -416 0
v -640 -416 0
v -640 -384 0
v -608 -384 0
v -64 -448 0
v -96 -448 0
v -96 -416 0
v -64 -416 0
v -608 -448 0
v -640 -448 0
v -640 -416 0
v -608 -416 0
v -64 -480 0
v -96 -480 0
v -96 -448 0
v -64 -448 0
v -608 -480 0
v -640 -480 0
v -640 -448 0
v -608 -448 0
v -64 -512 0
v -96 -512 0
v -96 -480 0
v -64 -480 0
v -608 -512 0
v -640 -512 0
v -640 -480 0
v -608 -480 0
v -64 -544 0
v -96 -544 0
v -96 -512 0
v -64 -512 0
v -128 -544 0
v -160 -544 0
v -160 -512 0
v -128 -512 0
v -160 -544 0
v -192 -544 0
v -192 -512 0
v -160 -512 0
v -192 -544 0
v -224 -544 0
v -224 -512 0
v -192 -512 0
v -224 -544 0
v -256 -544 0
v -256 -512 0
v -224 -512 0
v -256 -544 0
v -288 -544 0
v -288 -512 0
v -256 -512 0
v -416 -544 0
v -448 -544 0
v -448 -512 0
v -416 -512 0
v -448 -544 0
v -480 -544 0
v -480 -512 0
v -448 -512 0
v -480 -544 0
v -512 -544 0
v -512 -512 0
v -480 -512 0
v -512 -544 0
v -544 -544 0
v -544 -512 0
v -512 -512 0
v -544 -544 0
v -576 -544 0
v -576 -512 0
v -544 -512 0
v -608 -544 0
v -640 -544 0
v -640 -512 0
v -608 -512 0
v -64 -576 0
v -96 -576 0
v -96 -544 0
v -64 -544 0
v -608 -576 0
v -640 -576 0
v -640 -544 0
v -608 -544 0
v -64 -608 0
v -96 -608 0
v -96 -576 0
v -64 -576 0
v -608 -608 0
v -640 -608 0
v -640 -576 0
v -608 -576 0
v -64 -640 0
v -96 -640 0
v -96 -608 0
v -64 -608 0
v -608 -640 0
v -640 -640 0
v -640 -608 0
v -608 -608 0

# Texture cooridinates (Count = 4)
vt 0.03118908 0.7504873
vt 0 0.7504873
vt 0 0.7192982
vt 0.03118908 0.7192982

# Normal
vn 0 0 -1

# Mesh description
g Library_mesh_0012

# Faces
f 1/1/1 2/2/1 3/3/1 4/4/1
f 5/3/1 6/4/1 7/1/1 8/2/1
f 9/1/1 10/2/1 11/3/1 12/4/1
f 13/3/1 14/4/1 15/1/1 16/2/1
f 17/1/1 18/2/1 19/3/1 20/4/1
f 21/3/1 22/4/1 23/1/1 24/2/1
f 25/1/1 26/2/1 27/3/1 28/4/1
f 29/3/1 30/4/1 31/1/1 32/2/1
f 33/1/1 34/2/1 35/3/1 36/4/1
f 37/3/1 38/4/1 39/1/1 40/2/1
f 41/1/1 42/2/1 43/3/1 44/4/1
f 45/2/1 46/3/1 47/4/1 48/1/1
f 49/2/1 50/3/1 51/4/1 52/1/1
f 53/2/1 54/3/1 55/4/1 56/1/1
f 57/2/1 58/3/1 59/4/1 60/1/1
f 61/2/1 62/3/1 63/4/1 64/1/1
f 65/2/1 66/3/1 67/4/1 68/1/1
f 69/2/1 70/3/1 71/4/1 72/1/1
f 73/2/1 74/3/1 75/4/1 76/1/1
f 77/2/1 78/3/1 79/4/1 80/1/1
f 81/2/1 82/3/1 83/4/1 84/1/1
f 85/3/1 86/4/1 87/1/1 88/2/1
f 89/1/1 90/2/1 91/3/1 92/4/1
f 93/3/1 94/4/1 95/1/1 96/2/1
f 97/1/1 98/2/1 99/3/1 100/4/1
f 101/3/1 102/4/1 103/1/1 104/2/1
f 105/1/1 106/2/1 107/3/1 108/4/1
f 109/3/1 110/4/1 111/1/1 112/2/1
f 113/1/1 114/2/1 115/3/1 116/4/1
f 117/2/1 118/3/1 119/4/1 120/1/1
f 121/2/1 122/3/1 123/4/1 124/1/1
f 125/2/1 126/3/1 127/4/1 128/1/1
f 129/2/1 130/3/1 131/4/1 132/1/1
f 133/2/1 134/3/1 135/4/1 136/1/1
f 137/2/1 138/3/1 139/4/1 140/1/1
f 141/2/1 142/3/1 143/4/1 144/1/1
f 145/2/1 146/3/1 147/4/1 148/1/1
f 149/2/1 150/3/1 151/4/1 152/1/1
f 153/2/1 154/3/1 155/4/1 156/1/1
f 157/3/1 158/4/1 159/1/1 160/2/1
f 161/1/1 162/2/1 163/3/1 164/4/1
f 165/3/1 166/4/1 167/1/1 168/2/1
f 169/1/1 170/2/1 171/3/1 172/4/1
f 173/3/1 174/4/1 175/1/1 176/2/1
f 177/1/1 178/2/1 179/3/1 180/4/1
f 181/3/1 182/4/1 183/1/1 184/2/1
f 185/1/1 186/2/1 187/3/1 188/4/1
f 189/2/1 190/3/1 191/4/1 192/1/1
f 193/2/1 194/3/1 195/4/1 196/1/1
f 197/2/1 198/3/1 199/4/1 200/1/1
f 201/2/1 202/3/1 203/4/1 204/1/1
f 205/2/1 206/3/1 207/4/1 208/1/1
f 209/2/1 210/3/1 211/4/1 212/1/1
f 213/2/1 214/3/1 215/4/1 216/1/1
f 217/2/1 218/3/1 219/4/1 220/1/1
f 221/2/1 222/3/1 223/4/1 224/1/1
f 225/2/1 226/3/1 227/4/1 228/1/1
f 229/3/1 230/4/1 231/1/1 232/2/1
f 233/1/1 234/2/1 235/3/1 236/4/1
f 237/3/1 238/4/1 239/1/1 240/2/1
f 241/1/1 242/2/1 243/3/1 244/4/1
f 245/3/1 246/4/1 247/1/1 248/2/1
f 249/1/1 250/2/1 251/3/1 252/4/1
f 253/3/1 254/4/1 255/1/1 256/2/1

