# Tiled2Unity generated file. Do not modify by hand.
# Wavefront file for 'Library_mesh_0003.obj'

# Vertices (Count = 12)
v -288 -672 0
v -320 -672 0
v -320 -640 0
v -288 -640 0
v -320 -672 0
v -352 -672 0
v -352 -640 0
v -320 -640 0
v -352 -672 0
v -384 -672 0
v -384 -640 0
v -352 -640 0

# Texture cooridinates (Count = 4)
vt 0.875 0.8125
vt 0.90625 0.8125
vt 0.90625 0.84375
vt 0.875 0.84375

# Normal
vn 0 0 -1

# Mesh description
g Library_mesh_0003

# Faces
f 1/1/1 2/2/1 3/3/1 4/4/1
f 5/1/1 6/2/1 7/3/1 8/4/1
f 9/1/1 10/2/1 11/3/1 12/4/1

