# Tiled2Unity generated file. Do not modify by hand.
# Wavefront file for 'genaral-store_mesh_0005.obj'

# Vertices (Count = 96)
v -352 -256 0
v -384 -256 0
v -384 -224 0
v -352 -224 0
v -384 -256 0
v -416 -256 0
v -416 -224 0
v -384 -224 0
v -352 -288 0
v -384 -288 0
v -384 -256 0
v -352 -256 0
v -384 -288 0
v -416 -288 0
v -416 -256 0
v -384 -256 0
v -352 -320 0
v -384 -320 0
v -384 -288 0
v -352 -288 0
v -384 -320 0
v -416 -320 0
v -416 -288 0
v -384 -288 0
v -352 -352 0
v -384 -352 0
v -384 -320 0
v -352 -320 0
v -384 -352 0
v -416 -352 0
v -416 -320 0
v -384 -320 0
v -128 -384 0
v -160 -384 0
v -160 -352 0
v -128 -352 0
v -160 -384 0
v -192 -384 0
v -192 -352 0
v -160 -352 0
v -288 -384 0
v -320 -384 0
v -320 -352 0
v -288 -352 0
v -320 -384 0
v -352 -384 0
v -352 -352 0
v -320 -352 0
v -352 -384 0
v -384 -384 0
v -384 -352 0
v -352 -352 0
v -384 -384 0
v -416 -384 0
v -416 -352 0
v -384 -352 0
v -128 -416 0
v -160 -416 0
v -160 -384 0
v -128 -384 0
v -160 -416 0
v -192 -416 0
v -192 -384 0
v -160 -384 0
v -288 -416 0
v -320 -416 0
v -320 -384 0
v -288 -384 0
v -320 -416 0
v -352 -416 0
v -352 -384 0
v -320 -384 0
v -352 -416 0
v -384 -416 0
v -384 -384 0
v -352 -384 0
v -384 -416 0
v -416 -416 0
v -416 -384 0
v -384 -384 0
v -128 -448 0
v -160 -448 0
v -160 -416 0
v -128 -416 0
v -160 -448 0
v -192 -448 0
v -192 -416 0
v -160 -416 0
v -480 -448 0
v -512 -448 0
v -512 -416 0
v -480 -416 0
v -512 -448 0
v -544 -448 0
v -544 -416 0
v -512 -416 0

# Texture cooridinates (Count = 34)
vt 0.748538 0.5945419
vt 0.7797271 0.5945419
vt 0.7797271 0.625731
vt 0.748538 0.625731
vt 0.8109162 0.5945419
vt 0.8109162 0.625731
vt 0.9044834 0.6881092
vt 0.9356725 0.6881092
vt 0.9356725 0.7192982
vt 0.9044834 0.7192982
vt 0.2183236 0.4074074
vt 0.2495127 0.4074074
vt 0.2495127 0.4385965
vt 0.2183236 0.4385965
vt 0.8732944 0.5945419
vt 0.9044834 0.5945419
vt 0.9044834 0.625731
vt 0.8732944 0.625731
vt 0.8421053 0.625731
vt 0.8421053 0.6569201
vt 0.8109162 0.6569201
vt 0.748538 0.5633528
vt 0.7797271 0.5633528
vt 0.8109162 0.5633528
vt 0.1559454 0.9688109
vt 0.1871345 0.9688109
vt 0.1871345 1
vt 0.1559454 1
vt 0.1559454 0.9376218
vt 0.1871345 0.9376218
vt 0 0.9376218
vt 0.03118908 0.9376218
vt 0.03118908 0.9688109
vt 0 0.9688109

# Normal
vn 0 0 -1

# Mesh description
g genaral-store_mesh_0005

# Faces
f 1/1/1 2/2/1 3/3/1 4/4/1
f 5/2/1 6/5/1 7/6/1 8/3/1
f 9/1/1 10/2/1 11/3/1 12/4/1
f 13/1/1 14/2/1 15/3/1 16/4/1
f 17/1/1 18/2/1 19/3/1 20/4/1
f 21/1/1 22/2/1 23/3/1 24/4/1
f 25/1/1 26/2/1 27/3/1 28/4/1
f 29/1/1 30/2/1 31/3/1 32/4/1
f 33/7/1 34/8/1 35/9/1 36/10/1
f 37/11/1 38/12/1 39/13/1 40/14/1
f 41/1/1 42/2/1 43/3/1 44/4/1
f 45/2/1 46/5/1 47/6/1 48/3/1
f 49/1/1 50/2/1 51/3/1 52/4/1
f 53/1/1 54/2/1 55/3/1 56/4/1
f 57/15/1 58/16/1 59/17/1 60/18/1
f 61/6/1 62/19/1 63/20/1 64/21/1
f 65/22/1 66/23/1 67/2/1 68/1/1
f 69/23/1 70/24/1 71/5/1 72/2/1
f 73/2/1 74/5/1 75/6/1 76/3/1
f 77/2/1 78/5/1 79/6/1 80/3/1
f 81/25/1 82/26/1 83/27/1 84/28/1
f 85/29/1 86/30/1 87/26/1 88/25/1
f 89/31/1 90/32/1 91/33/1 92/34/1
f 93/31/1 94/32/1 95/33/1 96/34/1

