# Tiled2Unity generated file. Do not modify by hand.
# Wavefront file for 'genaral-store_mesh_0007.obj'

# Vertices (Count = 32)
v 0 -96 0
v -32 -96 0
v -32 -64 0
v 0 -64 0
v -608 -96 0
v -640 -96 0
v -640 -64 0
v -608 -64 0
v 0 -128 0
v -32 -128 0
v -32 -96 0
v 0 -96 0
v -608 -128 0
v -640 -128 0
v -640 -96 0
v -608 -96 0
v 0 -512 0
v -32 -512 0
v -32 -480 0
v 0 -480 0
v -608 -512 0
v -640 -512 0
v -640 -480 0
v -608 -480 0
v 0 -544 0
v -32 -544 0
v -32 -512 0
v 0 -512 0
v -608 -544 0
v -640 -544 0
v -640 -512 0
v -608 -512 0

# Texture cooridinates (Count = 6)
vt 0.875 0.28125
vt 0.90625 0.28125
vt 0.90625 0.3125
vt 0.875 0.3125
vt 0.875 0.25
vt 0.90625 0.25

# Normal
vn 0 0 -1

# Mesh description
g genaral-store_mesh_0007

# Faces
f 1/1/1 2/2/1 3/3/1 4/4/1
f 5/1/1 6/2/1 7/3/1 8/4/1
f 9/5/1 10/6/1 11/2/1 12/1/1
f 13/5/1 14/6/1 15/2/1 16/1/1
f 17/1/1 18/2/1 19/3/1 20/4/1
f 21/1/1 22/2/1 23/3/1 24/4/1
f 25/5/1 26/6/1 27/2/1 28/1/1
f 29/5/1 30/6/1 31/2/1 32/1/1

