# Tiled2Unity generated file. Do not modify by hand.
# Wavefront file for 'town_mesh_0003.obj'

# Vertices (Count = 12)
v -352 -320 0
v -384 -320 0
v -384 -288 0
v -352 -288 0
v -384 -320 0
v -416 -320 0
v -416 -288 0
v -384 -288 0
v -416 -416 0
v -448 -416 0
v -448 -384 0
v -416 -384 0

# Texture cooridinates (Count = 4)
vt 0.375 0.8872181
vt 0.5 0.8872181
vt 0.5 0.8947368
vt 0.375 0.8947368

# Normal
vn 0 0 -1

# Mesh description
g town_mesh_0003

# Faces
f 1/1/1 2/2/1 3/3/1 4/4/1
f 5/1/1 6/2/1 7/3/1 8/4/1
f 9/1/1 10/2/1 11/3/1 12/4/1

