# Tiled2Unity generated file. Do not modify by hand.
# Wavefront file for 'town_mesh_0003.obj'

# Vertices (Count = 212)
v 0 -32 0
v -32 -32 0
v -32 0 0
v 0 0 0
v -32 -32 0
v -64 -32 0
v -64 0 0
v -32 0 0
v -64 -32 0
v -96 -32 0
v -96 0 0
v -64 0 0
v -96 -32 0
v -128 -32 0
v -128 0 0
v -96 0 0
v -128 -32 0
v -160 -32 0
v -160 0 0
v -128 0 0
v -160 -32 0
v -192 -32 0
v -192 0 0
v -160 0 0
v -192 -32 0
v -224 -32 0
v -224 0 0
v -192 0 0
v -224 -32 0
v -256 -32 0
v -256 0 0
v -224 0 0
v 0 -64 0
v -32 -64 0
v -32 -32 0
v 0 -32 0
v -224 -64 0
v -256 -64 0
v -256 -32 0
v -224 -32 0
v 0 -96 0
v -32 -96 0
v -32 -64 0
v 0 -64 0
v -224 -96 0
v -256 -96 0
v -256 -64 0
v -224 -64 0
v 0 -128 0
v -32 -128 0
v -32 -96 0
v 0 -96 0
v -224 -128 0
v -256 -128 0
v -256 -96 0
v -224 -96 0
v 0 -160 0
v -32 -160 0
v -32 -128 0
v 0 -128 0
v -64 -160 0
v -96 -160 0
v -96 -128 0
v -64 -128 0
v -224 -160 0
v -256 -160 0
v -256 -128 0
v -224 -128 0
v 0 -192 0
v -32 -192 0
v -32 -160 0
v 0 -160 0
v -64 -192 0
v -96 -192 0
v -96 -160 0
v -64 -160 0
v -96 -192 0
v -128 -192 0
v -128 -160 0
v -96 -160 0
v -128 -192 0
v -160 -192 0
v -160 -160 0
v -128 -160 0
v -160 -192 0
v -192 -192 0
v -192 -160 0
v -160 -160 0
v -224 -192 0
v -256 -192 0
v -256 -160 0
v -224 -160 0
v 0 -224 0
v -32 -224 0
v -32 -192 0
v 0 -192 0
v -64 -224 0
v -96 -224 0
v -96 -192 0
v -64 -192 0
v -96 -224 0
v -128 -224 0
v -128 -192 0
v -96 -192 0
v -128 -224 0
v -160 -224 0
v -160 -192 0
v -128 -192 0
v -160 -224 0
v -192 -224 0
v -192 -192 0
v -160 -192 0
v -224 -224 0
v -256 -224 0
v -256 -192 0
v -224 -192 0
v 0 -256 0
v -32 -256 0
v -32 -224 0
v 0 -224 0
v -64 -256 0
v -96 -256 0
v -96 -224 0
v -64 -224 0
v -96 -256 0
v -128 -256 0
v -128 -224 0
v -96 -224 0
v -128 -256 0
v -160 -256 0
v -160 -224 0
v -128 -224 0
v -160 -256 0
v -192 -256 0
v -192 -224 0
v -160 -224 0
v -224 -256 0
v -256 -256 0
v -256 -224 0
v -224 -224 0
v 0 -288 0
v -32 -288 0
v -32 -256 0
v 0 -256 0
v -64 -288 0
v -96 -288 0
v -96 -256 0
v -64 -256 0
v -96 -288 0
v -128 -288 0
v -128 -256 0
v -96 -256 0
v -128 -288 0
v -160 -288 0
v -160 -256 0
v -128 -256 0
v -160 -288 0
v -192 -288 0
v -192 -256 0
v -160 -256 0
v -224 -288 0
v -256 -288 0
v -256 -256 0
v -224 -256 0
v 0 -320 0
v -32 -320 0
v -32 -288 0
v 0 -288 0
v -64 -320 0
v -96 -320 0
v -96 -288 0
v -64 -288 0
v -96 -320 0
v -128 -320 0
v -128 -288 0
v -96 -288 0
v -128 -320 0
v -160 -320 0
v -160 -288 0
v -128 -288 0
v -160 -320 0
v -192 -320 0
v -192 -288 0
v -160 -288 0
v -224 -320 0
v -256 -320 0
v -256 -288 0
v -224 -288 0
v 0 -352 0
v -32 -352 0
v -32 -320 0
v 0 -320 0
v -224 -352 0
v -256 -352 0
v -256 -320 0
v -224 -320 0
v 0 -384 0
v -32 -384 0
v -32 -352 0
v 0 -352 0
v -32 -384 0
v -64 -384 0
v -64 -352 0
v -32 -352 0
v -192 -384 0
v -224 -384 0
v -224 -352 0
v -192 -352 0
v -224 -384 0
v -256 -384 0
v -256 -352 0
v -224 -352 0

# Texture cooridinates (Count = 53)
vt 0.6875 0.78125
vt 0.71875 0.78125
vt 0.71875 0.8125
vt 0.6875 0.8125
vt 0.6875 0.65625
vt 0.71875 0.65625
vt 0.71875 0.6875
vt 0.6875 0.6875
vt 0.75 0.78125
vt 0.75 0.8125
vt 0.75 0.6875
vt 0.75 0.71875
vt 0.71875 0.71875
vt 0.65625 0.6875
vt 0.6875 0.71875
vt 0.65625 0.71875
vt 0.625 0.59375
vt 0.65625 0.59375
vt 0.65625 0.625
vt 0.625 0.625
vt 0 0.46875
vt 0.03125 0.46875
vt 0.03125 0.5
vt 0 0.5
vt 0.0625 0.46875
vt 0.0625 0.5
vt 0.09375 0.46875
vt 0.09375 0.5
vt 0 0.6875
vt 0.03125 0.6875
vt 0.03125 0.71875
vt 0 0.71875
vt 0.0625 0.6875
vt 0.0625 0.71875
vt 0.09375 0.6875
vt 0.09375 0.71875
vt 0 0.65625
vt 0.03125 0.65625
vt 0.0625 0.65625
vt 0.09375 0.65625
vt 0 0.625
vt 0.03125 0.625
vt 0.0625 0.625
vt 0.09375 0.625
vt 0.03125 0.375
vt 0.0625 0.375
vt 0.0625 0.40625
vt 0.03125 0.40625
vt 0.09375 0.375
vt 0.09375 0.40625
vt 0.6875 0.75
vt 0.71875 0.75
vt 0.75 0.75

# Normal
vn 0 0 -1

# Mesh description
g town_mesh_0003

# Faces
f 1/1/1 2/2/1 3/3/1 4/4/1
f 5/5/1 6/6/1 7/7/1 8/8/1
f 9/5/1 10/6/1 11/7/1 12/8/1
f 13/5/1 14/6/1 15/7/1 16/8/1
f 17/5/1 18/6/1 19/7/1 20/8/1
f 21/5/1 22/6/1 23/7/1 24/8/1
f 25/5/1 26/6/1 27/7/1 28/8/1
f 29/2/1 30/9/1 31/10/1 32/3/1
f 33/7/1 34/11/1 35/12/1 36/13/1
f 37/14/1 38/8/1 39/15/1 40/16/1
f 41/7/1 42/11/1 43/12/1 44/13/1
f 45/14/1 46/8/1 47/15/1 48/16/1
f 49/7/1 50/11/1 51/12/1 52/13/1
f 53/14/1 54/8/1 55/15/1 56/16/1
f 57/7/1 58/11/1 59/12/1 60/13/1
f 61/17/1 62/18/1 63/19/1 64/20/1
f 65/14/1 66/8/1 67/15/1 68/16/1
f 69/7/1 70/11/1 71/12/1 72/13/1
f 73/21/1 74/22/1 75/23/1 76/24/1
f 77/21/1 78/22/1 79/23/1 80/24/1
f 81/22/1 82/25/1 83/26/1 84/23/1
f 85/25/1 86/27/1 87/28/1 88/26/1
f 89/14/1 90/8/1 91/15/1 92/16/1
f 93/7/1 94/11/1 95/12/1 96/13/1
f 97/29/1 98/30/1 99/31/1 100/32/1
f 101/30/1 102/33/1 103/34/1 104/31/1
f 105/30/1 106/33/1 107/34/1 108/31/1
f 109/33/1 110/35/1 111/36/1 112/34/1
f 113/14/1 114/8/1 115/15/1 116/16/1
f 117/7/1 118/11/1 119/12/1 120/13/1
f 121/37/1 122/38/1 123/30/1 124/29/1
f 125/38/1 126/39/1 127/33/1 128/30/1
f 129/38/1 130/39/1 131/33/1 132/30/1
f 133/39/1 134/40/1 135/35/1 136/33/1
f 137/14/1 138/8/1 139/15/1 140/16/1
f 141/7/1 142/11/1 143/12/1 144/13/1
f 145/41/1 146/42/1 147/38/1 148/37/1
f 149/42/1 150/43/1 151/39/1 152/38/1
f 153/42/1 154/43/1 155/39/1 156/38/1
f 157/43/1 158/44/1 159/40/1 160/39/1
f 161/14/1 162/8/1 163/15/1 164/16/1
f 165/7/1 166/11/1 167/12/1 168/13/1
f 169/45/1 170/46/1 171/47/1 172/48/1
f 173/46/1 174/49/1 175/50/1 176/47/1
f 177/45/1 178/46/1 179/47/1 180/48/1
f 181/46/1 182/49/1 183/50/1 184/47/1
f 185/14/1 186/8/1 187/15/1 188/16/1
f 189/7/1 190/11/1 191/12/1 192/13/1
f 193/14/1 194/8/1 195/15/1 196/16/1
f 197/51/1 198/52/1 199/2/1 200/1/1
f 201/15/1 202/13/1 203/52/1 204/51/1
f 205/15/1 206/13/1 207/52/1 208/51/1
f 209/52/1 210/53/1 211/9/1 212/2/1

