# Tiled2Unity generated file. Do not modify by hand.
# Wavefront file for 'town_mesh_0014.obj'

# Vertices (Count = 8)
v -416 -384 0
v -448 -384 0
v -448 -352 0
v -416 -352 0
v -448 -384 0
v -480 -384 0
v -480 -352 0
v -448 -352 0

# Texture cooridinates (Count = 6)
vt 0.748538 0.5945419
vt 0.7797271 0.5945419
vt 0.7797271 0.625731
vt 0.748538 0.625731
vt 0.8109162 0.5945419
vt 0.8109162 0.625731

# Normal
vn 0 0 -1

# Mesh description
g town_mesh_0014

# Faces
f 1/1/1 2/2/1 3/3/1 4/4/1
f 5/2/1 6/5/1 7/6/1 8/3/1

