# Tiled2Unity generated file. Do not modify by hand.
# Wavefront file for 'town_mesh_0006.obj'

# Vertices (Count = 476)
v -32 -448 0
v -64 -448 0
v -64 -416 0
v -32 -416 0
v -64 -448 0
v -96 -448 0
v -96 -416 0
v -64 -416 0
v -96 -448 0
v -128 -448 0
v -128 -416 0
v -96 -416 0
v -128 -448 0
v -160 -448 0
v -160 -416 0
v -128 -416 0
v -160 -448 0
v -192 -448 0
v -192 -416 0
v -160 -416 0
v -192 -448 0
v -224 -448 0
v -224 -416 0
v -192 -416 0
v -1408 -448 0
v -1440 -448 0
v -1440 -416 0
v -1408 -416 0
v -1440 -448 0
v -1472 -448 0
v -1472 -416 0
v -1440 -416 0
v -1472 -448 0
v -1504 -448 0
v -1504 -416 0
v -1472 -416 0
v -1504 -448 0
v -1536 -448 0
v -1536 -416 0
v -1504 -416 0
v -1536 -448 0
v -1568 -448 0
v -1568 -416 0
v -1536 -416 0
v -1568 -448 0
v -1600 -448 0
v -1600 -416 0
v -1568 -416 0
v -1600 -448 0
v -1632 -448 0
v -1632 -416 0
v -1600 -416 0
v -1632 -448 0
v -1664 -448 0
v -1664 -416 0
v -1632 -416 0
v -32 -480 0
v -64 -480 0
v -64 -448 0
v -32 -448 0
v -64 -480 0
v -96 -480 0
v -96 -448 0
v -64 -448 0
v -96 -480 0
v -128 -480 0
v -128 -448 0
v -96 -448 0
v -128 -480 0
v -160 -480 0
v -160 -448 0
v -128 -448 0
v -160 -480 0
v -192 -480 0
v -192 -448 0
v -160 -448 0
v -192 -480 0
v -224 -480 0
v -224 -448 0
v -192 -448 0
v -640 -480 0
v -672 -480 0
v -672 -448 0
v -640 -448 0
v -672 -480 0
v -704 -480 0
v -704 -448 0
v -672 -448 0
v -704 -480 0
v -736 -480 0
v -736 -448 0
v -704 -448 0
v -736 -480 0
v -768 -480 0
v -768 -448 0
v -736 -448 0
v -768 -480 0
v -800 -480 0
v -800 -448 0
v -768 -448 0
v -1408 -480 0
v -1440 -480 0
v -1440 -448 0
v -1408 -448 0
v -1440 -480 0
v -1472 -480 0
v -1472 -448 0
v -1440 -448 0
v -1472 -480 0
v -1504 -480 0
v -1504 -448 0
v -1472 -448 0
v -1504 -480 0
v -1536 -480 0
v -1536 -448 0
v -1504 -448 0
v -1536 -480 0
v -1568 -480 0
v -1568 -448 0
v -1536 -448 0
v -1568 -480 0
v -1600 -480 0
v -1600 -448 0
v -1568 -448 0
v -1600 -480 0
v -1632 -480 0
v -1632 -448 0
v -1600 -448 0
v -1632 -480 0
v -1664 -480 0
v -1664 -448 0
v -1632 -448 0
v -32 -512 0
v -64 -512 0
v -64 -480 0
v -32 -480 0
v -64 -512 0
v -96 -512 0
v -96 -480 0
v -64 -480 0
v -96 -512 0
v -128 -512 0
v -128 -480 0
v -96 -480 0
v -128 -512 0
v -160 -512 0
v -160 -480 0
v -128 -480 0
v -160 -512 0
v -192 -512 0
v -192 -480 0
v -160 -480 0
v -192 -512 0
v -224 -512 0
v -224 -480 0
v -192 -480 0
v -640 -512 0
v -672 -512 0
v -672 -480 0
v -640 -480 0
v -672 -512 0
v -704 -512 0
v -704 -480 0
v -672 -480 0
v -704 -512 0
v -736 -512 0
v -736 -480 0
v -704 -480 0
v -736 -512 0
v -768 -512 0
v -768 -480 0
v -736 -480 0
v -768 -512 0
v -800 -512 0
v -800 -480 0
v -768 -480 0
v -1408 -512 0
v -1440 -512 0
v -1440 -480 0
v -1408 -480 0
v -1440 -512 0
v -1472 -512 0
v -1472 -480 0
v -1440 -480 0
v -1472 -512 0
v -1504 -512 0
v -1504 -480 0
v -1472 -480 0
v -1504 -512 0
v -1536 -512 0
v -1536 -480 0
v -1504 -480 0
v -1536 -512 0
v -1568 -512 0
v -1568 -480 0
v -1536 -480 0
v -1568 -512 0
v -1600 -512 0
v -1600 -480 0
v -1568 -480 0
v -1600 -512 0
v -1632 -512 0
v -1632 -480 0
v -1600 -480 0
v -1632 -512 0
v -1664 -512 0
v -1664 -480 0
v -1632 -480 0
v -32 -544 0
v -64 -544 0
v -64 -512 0
v -32 -512 0
v -64 -544 0
v -96 -544 0
v -96 -512 0
v -64 -512 0
v -96 -544 0
v -128 -544 0
v -128 -512 0
v -96 -512 0
v -128 -544 0
v -160 -544 0
v -160 -512 0
v -128 -512 0
v -160 -544 0
v -192 -544 0
v -192 -512 0
v -160 -512 0
v -192 -544 0
v -224 -544 0
v -224 -512 0
v -192 -512 0
v -640 -544 0
v -672 -544 0
v -672 -512 0
v -640 -512 0
v -672 -544 0
v -704 -544 0
v -704 -512 0
v -672 -512 0
v -704 -544 0
v -736 -544 0
v -736 -512 0
v -704 -512 0
v -736 -544 0
v -768 -544 0
v -768 -512 0
v -736 -512 0
v -768 -544 0
v -800 -544 0
v -800 -512 0
v -768 -512 0
v -1408 -544 0
v -1440 -544 0
v -1440 -512 0
v -1408 -512 0
v -1440 -544 0
v -1472 -544 0
v -1472 -512 0
v -1440 -512 0
v -1472 -544 0
v -1504 -544 0
v -1504 -512 0
v -1472 -512 0
v -1504 -544 0
v -1536 -544 0
v -1536 -512 0
v -1504 -512 0
v -1536 -544 0
v -1568 -544 0
v -1568 -512 0
v -1536 -512 0
v -1568 -544 0
v -1600 -544 0
v -1600 -512 0
v -1568 -512 0
v -1600 -544 0
v -1632 -544 0
v -1632 -512 0
v -1600 -512 0
v -1632 -544 0
v -1664 -544 0
v -1664 -512 0
v -1632 -512 0
v -640 -576 0
v -672 -576 0
v -672 -544 0
v -640 -544 0
v -672 -576 0
v -704 -576 0
v -704 -544 0
v -672 -544 0
v -704 -576 0
v -736 -576 0
v -736 -544 0
v -704 -544 0
v -736 -576 0
v -768 -576 0
v -768 -544 0
v -736 -544 0
v -768 -576 0
v -800 -576 0
v -800 -544 0
v -768 -544 0
v -1408 -576 0
v -1440 -576 0
v -1440 -544 0
v -1408 -544 0
v -1440 -576 0
v -1472 -576 0
v -1472 -544 0
v -1440 -544 0
v -1472 -576 0
v -1504 -576 0
v -1504 -544 0
v -1472 -544 0
v -1504 -576 0
v -1536 -576 0
v -1536 -544 0
v -1504 -544 0
v -1536 -576 0
v -1568 -576 0
v -1568 -544 0
v -1536 -544 0
v -1568 -576 0
v -1600 -576 0
v -1600 -544 0
v -1568 -544 0
v -1600 -576 0
v -1632 -576 0
v -1632 -544 0
v -1600 -544 0
v -1632 -576 0
v -1664 -576 0
v -1664 -544 0
v -1632 -544 0
v -2144 -608 0
v -2176 -608 0
v -2176 -576 0
v -2144 -576 0
v -2176 -608 0
v -2208 -608 0
v -2208 -576 0
v -2176 -576 0
v -2208 -608 0
v -2240 -608 0
v -2240 -576 0
v -2208 -576 0
v -2240 -608 0
v -2272 -608 0
v -2272 -576 0
v -2240 -576 0
v -2272 -608 0
v -2304 -608 0
v -2304 -576 0
v -2272 -576 0
v -2304 -608 0
v -2336 -608 0
v -2336 -576 0
v -2304 -576 0
v -2144 -640 0
v -2176 -640 0
v -2176 -608 0
v -2144 -608 0
v -2176 -640 0
v -2208 -640 0
v -2208 -608 0
v -2176 -608 0
v -2208 -640 0
v -2240 -640 0
v -2240 -608 0
v -2208 -608 0
v -2240 -640 0
v -2272 -640 0
v -2272 -608 0
v -2240 -608 0
v -2272 -640 0
v -2304 -640 0
v -2304 -608 0
v -2272 -608 0
v -2304 -640 0
v -2336 -640 0
v -2336 -608 0
v -2304 -608 0
v -2144 -672 0
v -2176 -672 0
v -2176 -640 0
v -2144 -640 0
v -2176 -672 0
v -2208 -672 0
v -2208 -640 0
v -2176 -640 0
v -2208 -672 0
v -2240 -672 0
v -2240 -640 0
v -2208 -640 0
v -2240 -672 0
v -2272 -672 0
v -2272 -640 0
v -2240 -640 0
v -2272 -672 0
v -2304 -672 0
v -2304 -640 0
v -2272 -640 0
v -2304 -672 0
v -2336 -672 0
v -2336 -640 0
v -2304 -640 0
v -1184 -704 0
v -1216 -704 0
v -1216 -672 0
v -1184 -672 0
v -2144 -704 0
v -2176 -704 0
v -2176 -672 0
v -2144 -672 0
v -2176 -704 0
v -2208 -704 0
v -2208 -672 0
v -2176 -672 0
v -2208 -704 0
v -2240 -704 0
v -2240 -672 0
v -2208 -672 0
v -2240 -704 0
v -2272 -704 0
v -2272 -672 0
v -2240 -672 0
v -2272 -704 0
v -2304 -704 0
v -2304 -672 0
v -2272 -672 0
v -2304 -704 0
v -2336 -704 0
v -2336 -672 0
v -2304 -672 0
v -896 -736 0
v -928 -736 0
v -928 -704 0
v -896 -704 0
v -928 -736 0
v -960 -736 0
v -960 -704 0
v -928 -704 0
v -960 -736 0
v -992 -736 0
v -992 -704 0
v -960 -704 0
v -992 -736 0
v -1024 -736 0
v -1024 -704 0
v -992 -704 0
v -1024 -736 0
v -1056 -736 0
v -1056 -704 0
v -1024 -704 0
v -1056 -736 0
v -1088 -736 0
v -1088 -704 0
v -1056 -704 0
v -1088 -736 0
v -1120 -736 0
v -1120 -704 0
v -1088 -704 0
v -1120 -736 0
v -1152 -736 0
v -1152 -704 0
v -1120 -704 0
v -1152 -736 0
v -1184 -736 0
v -1184 -704 0
v -1152 -704 0
v -1184 -736 0
v -1216 -736 0
v -1216 -704 0
v -1184 -704 0

# Texture cooridinates (Count = 61)
vt 0.5 0.4661654
vt 0.625 0.4661654
vt 0.625 0.4736842
vt 0.5 0.4736842
vt 0.625 0.2330827
vt 0.75 0.2330827
vt 0.75 0.2406015
vt 0.625 0.2406015
vt 0.875 0.2330827
vt 0.875 0.2406015
vt 1 0.2330827
vt 1 0.2406015
vt 0.5 0.4586466
vt 0.625 0.4586466
vt 0 0.5714285
vt 0.125 0.5714285
vt 0.125 0.5789474
vt 0 0.5789474
vt 0.25 0.5714285
vt 0.25 0.5789474
vt 0.375 0.5714285
vt 0.375 0.5789474
vt 0.625 0.2255639
vt 0.75 0.2255639
vt 0.875 0.2255639
vt 1 0.2255639
vt 0.5 0.4511278
vt 0.625 0.4511278
vt 0.5 0.443609
vt 0.625 0.443609
vt 0 0.5639098
vt 0.125 0.5639098
vt 0.25 0.5639098
vt 0.375 0.5639098
vt 0.625 0.2180451
vt 0.75 0.2180451
vt 0.875 0.2180451
vt 0.75 0.1954888
vt 0.875 0.1954888
vt 0.875 0.2030075
vt 0.75 0.2030075
vt 1 0.2180451
vt 0 0.6616541
vt 0.125 0.6616541
vt 0.125 0.6691729
vt 0 0.6691729
vt 0.25 0.6616541
vt 0.25 0.6691729
vt 0.25 0.6541353
vt 0.375 0.6541353
vt 0.375 0.6616541
vt 0.25 0.7443609
vt 0.375 0.7443609
vt 0.375 0.7518797
vt 0.25 0.7518797
vt 0 0.6541353
vt 0.125 0.6541353
vt 0.125 0.7368421
vt 0.25 0.7368421
vt 0.125 0.7443609
vt 0.375 0.7368421

# Normal
vn 0 0 -1

# Mesh description
g town_mesh_0006

# Faces
f 1/1/1 2/2/1 3/3/1 4/4/1
f 5/1/1 6/2/1 7/3/1 8/4/1
f 9/1/1 10/2/1 11/3/1 12/4/1
f 13/1/1 14/2/1 15/3/1 16/4/1
f 17/1/1 18/2/1 19/3/1 20/4/1
f 21/1/1 22/2/1 23/3/1 24/4/1
f 25/5/1 26/6/1 27/7/1 28/8/1
f 29/6/1 30/9/1 31/10/1 32/7/1
f 33/6/1 34/9/1 35/10/1 36/7/1
f 37/6/1 38/9/1 39/10/1 40/7/1
f 41/6/1 42/9/1 43/10/1 44/7/1
f 45/6/1 46/9/1 47/10/1 48/7/1
f 49/6/1 50/9/1 51/10/1 52/7/1
f 53/9/1 54/11/1 55/12/1 56/10/1
f 57/13/1 58/14/1 59/2/1 60/1/1
f 61/13/1 62/14/1 63/2/1 64/1/1
f 65/13/1 66/14/1 67/2/1 68/1/1
f 69/13/1 70/14/1 71/2/1 72/1/1
f 73/13/1 74/14/1 75/2/1 76/1/1
f 77/13/1 78/14/1 79/2/1 80/1/1
f 81/15/1 82/16/1 83/17/1 84/18/1
f 85/16/1 86/19/1 87/20/1 88/17/1
f 89/19/1 90/21/1 91/22/1 92/20/1
f 93/16/1 94/19/1 95/20/1 96/17/1
f 97/19/1 98/21/1 99/22/1 100/20/1
f 101/23/1 102/24/1 103/6/1 104/5/1
f 105/24/1 106/25/1 107/9/1 108/6/1
f 109/24/1 110/25/1 111/9/1 112/6/1
f 113/24/1 114/25/1 115/9/1 116/6/1
f 117/24/1 118/25/1 119/9/1 120/6/1
f 121/24/1 122/25/1 123/9/1 124/6/1
f 125/24/1 126/25/1 127/9/1 128/6/1
f 129/25/1 130/26/1 131/11/1 132/9/1
f 133/27/1 134/28/1 135/14/1 136/13/1
f 137/27/1 138/28/1 139/14/1 140/13/1
f 141/27/1 142/28/1 143/14/1 144/13/1
f 145/27/1 146/28/1 147/14/1 148/13/1
f 149/27/1 150/28/1 151/14/1 152/13/1
f 153/27/1 154/28/1 155/14/1 156/13/1
f 157/16/1 158/19/1 159/20/1 160/17/1
f 161/16/1 162/19/1 163/20/1 164/17/1
f 165/16/1 166/19/1 167/20/1 168/17/1
f 169/16/1 170/19/1 171/20/1 172/17/1
f 173/16/1 174/19/1 175/20/1 176/17/1
f 177/23/1 178/24/1 179/6/1 180/5/1
f 181/24/1 182/25/1 183/9/1 184/6/1
f 185/24/1 186/25/1 187/9/1 188/6/1
f 189/24/1 190/25/1 191/9/1 192/6/1
f 193/24/1 194/25/1 195/9/1 196/6/1
f 197/24/1 198/25/1 199/9/1 200/6/1
f 201/24/1 202/25/1 203/9/1 204/6/1
f 205/25/1 206/26/1 207/11/1 208/9/1
f 209/29/1 210/30/1 211/28/1 212/27/1
f 213/29/1 214/30/1 215/28/1 216/27/1
f 217/29/1 218/30/1 219/28/1 220/27/1
f 221/29/1 222/30/1 223/28/1 224/27/1
f 225/29/1 226/30/1 227/28/1 228/27/1
f 229/29/1 230/30/1 231/28/1 232/27/1
f 233/15/1 234/16/1 235/17/1 236/18/1
f 237/16/1 238/19/1 239/20/1 240/17/1
f 241/16/1 242/19/1 243/20/1 244/17/1
f 245/16/1 246/19/1 247/20/1 248/17/1
f 249/19/1 250/21/1 251/22/1 252/20/1
f 253/23/1 254/24/1 255/6/1 256/5/1
f 257/24/1 258/25/1 259/9/1 260/6/1
f 261/24/1 262/25/1 263/9/1 264/6/1
f 265/24/1 266/25/1 267/9/1 268/6/1
f 269/24/1 270/25/1 271/9/1 272/6/1
f 273/24/1 274/25/1 275/9/1 276/6/1
f 277/24/1 278/25/1 279/9/1 280/6/1
f 281/25/1 282/26/1 283/11/1 284/9/1
f 285/31/1 286/32/1 287/16/1 288/15/1
f 289/32/1 290/33/1 291/19/1 292/16/1
f 293/32/1 294/33/1 295/19/1 296/16/1
f 297/32/1 298/33/1 299/19/1 300/16/1
f 301/33/1 302/34/1 303/21/1 304/19/1
f 305/35/1 306/36/1 307/24/1 308/23/1
f 309/36/1 310/37/1 311/25/1 312/24/1
f 313/38/1 314/39/1 315/40/1 316/41/1
f 317/38/1 318/39/1 319/40/1 320/41/1
f 321/38/1 322/39/1 323/40/1 324/41/1
f 325/38/1 326/39/1 327/40/1 328/41/1
f 329/36/1 330/37/1 331/25/1 332/24/1
f 333/37/1 334/42/1 335/26/1 336/25/1
f 337/43/1 338/44/1 339/45/1 340/46/1
f 341/44/1 342/47/1 343/48/1 344/45/1
f 345/44/1 346/47/1 347/48/1 348/45/1
f 349/44/1 350/47/1 351/48/1 352/45/1
f 353/44/1 354/47/1 355/48/1 356/45/1
f 357/49/1 358/50/1 359/51/1 360/47/1
f 361/43/1 362/44/1 363/45/1 364/46/1
f 365/44/1 366/47/1 367/48/1 368/45/1
f 369/44/1 370/47/1 371/48/1 372/45/1
f 373/44/1 374/47/1 375/48/1 376/45/1
f 377/44/1 378/47/1 379/48/1 380/45/1
f 381/49/1 382/50/1 383/51/1 384/47/1
f 385/43/1 386/44/1 387/45/1 388/46/1
f 389/44/1 390/47/1 391/48/1 392/45/1
f 393/44/1 394/47/1 395/48/1 396/45/1
f 397/44/1 398/47/1 399/48/1 400/45/1
f 401/44/1 402/47/1 403/48/1 404/45/1
f 405/49/1 406/50/1 407/51/1 408/47/1
f 409/52/1 410/53/1 411/54/1 412/55/1
f 413/56/1 414/57/1 415/44/1 416/43/1
f 417/57/1 418/49/1 419/47/1 420/44/1
f 421/57/1 422/49/1 423/47/1 424/44/1
f 425/57/1 426/49/1 427/47/1 428/44/1
f 429/57/1 430/49/1 431/47/1 432/44/1
f 433/49/1 434/50/1 435/51/1 436/47/1
f 437/58/1 438/59/1 439/52/1 440/60/1
f 441/58/1 442/59/1 443/52/1 444/60/1
f 445/58/1 446/59/1 447/52/1 448/60/1
f 449/58/1 450/59/1 451/52/1 452/60/1
f 453/58/1 454/59/1 455/52/1 456/60/1
f 457/58/1 458/59/1 459/52/1 460/60/1
f 461/58/1 462/59/1 463/52/1 464/60/1
f 465/58/1 466/59/1 467/52/1 468/60/1
f 469/58/1 470/59/1 471/52/1 472/60/1
f 473/59/1 474/61/1 475/53/1 476/52/1

