# Tiled2Unity generated file. Do not modify by hand.
# Wavefront file for 'town_mesh_0015.obj'

# Vertices (Count = 24)
v -64 -576 0
v -96 -576 0
v -96 -544 0
v -64 -544 0
v -160 -576 0
v -192 -576 0
v -192 -544 0
v -160 -544 0
v -64 -608 0
v -96 -608 0
v -96 -576 0
v -64 -576 0
v -160 -608 0
v -192 -608 0
v -192 -576 0
v -160 -576 0
v -768 -672 0
v -800 -672 0
v -800 -640 0
v -768 -640 0
v -800 -672 0
v -832 -672 0
v -832 -640 0
v -800 -640 0

# Texture cooridinates (Count = 12)
vt 0.7173489 0.8440546
vt 0.748538 0.8440546
vt 0.748538 0.8752437
vt 0.7173489 0.8752437
vt 0.7173489 0.8128655
vt 0.748538 0.8128655
vt 0.748538 0.5945419
vt 0.7797271 0.5945419
vt 0.7797271 0.625731
vt 0.748538 0.625731
vt 0.8109162 0.5945419
vt 0.8109162 0.625731

# Normal
vn 0 0 -1

# Mesh description
g town_mesh_0015

# Faces
f 1/1/1 2/2/1 3/3/1 4/4/1
f 5/1/1 6/2/1 7/3/1 8/4/1
f 9/5/1 10/6/1 11/2/1 12/1/1
f 13/5/1 14/6/1 15/2/1 16/1/1
f 17/7/1 18/8/1 19/9/1 20/10/1
f 21/8/1 22/11/1 23/12/1 24/9/1

