# Tiled2Unity generated file. Do not modify by hand.
# Wavefront file for 'town_mesh_0013.obj'

# Vertices (Count = 176)
v -352 -320 0
v -384 -320 0
v -384 -288 0
v -352 -288 0
v -384 -320 0
v -416 -320 0
v -416 -288 0
v -384 -288 0
v -416 -320 0
v -448 -320 0
v -448 -288 0
v -416 -288 0
v -448 -320 0
v -480 -320 0
v -480 -288 0
v -448 -288 0
v -480 -320 0
v -512 -320 0
v -512 -288 0
v -480 -288 0
v -512 -320 0
v -544 -320 0
v -544 -288 0
v -512 -288 0
v -544 -320 0
v -576 -320 0
v -576 -288 0
v -544 -288 0
v -576 -320 0
v -608 -320 0
v -608 -288 0
v -576 -288 0
v -352 -352 0
v -384 -352 0
v -384 -320 0
v -352 -320 0
v -576 -352 0
v -608 -352 0
v -608 -320 0
v -576 -320 0
v -352 -384 0
v -384 -384 0
v -384 -352 0
v -352 -352 0
v -576 -384 0
v -608 -384 0
v -608 -352 0
v -576 -352 0
v -352 -416 0
v -384 -416 0
v -384 -384 0
v -352 -384 0
v -576 -416 0
v -608 -416 0
v -608 -384 0
v -576 -384 0
v -640 -416 0
v -672 -416 0
v -672 -384 0
v -640 -384 0
v -1632 -416 0
v -1664 -416 0
v -1664 -384 0
v -1632 -384 0
v -352 -448 0
v -384 -448 0
v -384 -416 0
v -352 -416 0
v -576 -448 0
v -608 -448 0
v -608 -416 0
v -576 -416 0
v -1632 -448 0
v -1664 -448 0
v -1664 -416 0
v -1632 -416 0
v -352 -480 0
v -384 -480 0
v -384 -448 0
v -352 -448 0
v -576 -480 0
v -608 -480 0
v -608 -448 0
v -576 -448 0
v -352 -512 0
v -384 -512 0
v -384 -480 0
v -352 -480 0
v -576 -512 0
v -608 -512 0
v -608 -480 0
v -576 -480 0
v -352 -544 0
v -384 -544 0
v -384 -512 0
v -352 -512 0
v -576 -544 0
v -608 -544 0
v -608 -512 0
v -576 -512 0
v -32 -576 0
v -64 -576 0
v -64 -544 0
v -32 -544 0
v -192 -576 0
v -224 -576 0
v -224 -544 0
v -192 -544 0
v -352 -576 0
v -384 -576 0
v -384 -544 0
v -352 -544 0
v -576 -576 0
v -608 -576 0
v -608 -544 0
v -576 -544 0
v -1568 -576 0
v -1600 -576 0
v -1600 -544 0
v -1568 -544 0
v -32 -608 0
v -64 -608 0
v -64 -576 0
v -32 -576 0
v -192 -608 0
v -224 -608 0
v -224 -576 0
v -192 -576 0
v -352 -608 0
v -384 -608 0
v -384 -576 0
v -352 -576 0
v -576 -608 0
v -608 -608 0
v -608 -576 0
v -576 -576 0
v -32 -640 0
v -64 -640 0
v -64 -608 0
v -32 -608 0
v -352 -640 0
v -384 -640 0
v -384 -608 0
v -352 -608 0
v -384 -640 0
v -416 -640 0
v -416 -608 0
v -384 -608 0
v -416 -640 0
v -448 -640 0
v -448 -608 0
v -416 -608 0
v -512 -640 0
v -544 -640 0
v -544 -608 0
v -512 -608 0
v -544 -640 0
v -576 -640 0
v -576 -608 0
v -544 -608 0
v -576 -640 0
v -608 -640 0
v -608 -608 0
v -576 -608 0
v -32 -672 0
v -64 -672 0
v -64 -640 0
v -32 -640 0
v -192 -672 0
v -224 -672 0
v -224 -640 0
v -192 -640 0
v -1184 -704 0
v -1216 -704 0
v -1216 -672 0
v -1184 -672 0

# Texture cooridinates (Count = 47)
vt 0.25 0.7969925
vt 0.375 0.7969925
vt 0.375 0.8045113
vt 0.25 0.8045113
vt 0 0.7894737
vt 0.125 0.7894737
vt 0.125 0.7969925
vt 0 0.7969925
vt 0.5 0.7969925
vt 0.5 0.8045113
vt 0.125 0.8045113
vt 0 0.8045113
vt 0.25 0.7819549
vt 0.375 0.7819549
vt 0.375 0.7894737
vt 0.25 0.7894737
vt 0.875 0.4661654
vt 1 0.4661654
vt 1 0.4736842
vt 0.875 0.4736842
vt 0.875 0.4586466
vt 1 0.4586466
vt 0.5 0.2180451
vt 0.625 0.2180451
vt 0.625 0.2255639
vt 0.5 0.2255639
vt 0.625 0.08270675
vt 0.75 0.08270675
vt 0.75 0.09022558
vt 0.625 0.09022558
vt 0.5 0.2105263
vt 0.625 0.2105263
vt 0.375 0.1278195
vt 0.5 0.1278195
vt 0.5 0.1353384
vt 0.375 0.1353384
vt 0.5 0.7894737
vt 0.375 0.1203008
vt 0.5 0.1203008
vt 0.375 0.1804512
vt 0.5 0.1804512
vt 0.5 0.1879699
vt 0.375 0.1879699
vt 0.25 0.7443609
vt 0.375 0.7443609
vt 0.375 0.7518797
vt 0.25 0.7518797

# Normal
vn 0 0 -1

# Mesh description
g town_mesh_0013

# Faces
f 1/1/1 2/2/1 3/3/1 4/4/1
f 5/5/1 6/6/1 7/7/1 8/8/1
f 9/5/1 10/6/1 11/7/1 12/8/1
f 13/5/1 14/6/1 15/7/1 16/8/1
f 17/5/1 18/6/1 19/7/1 20/8/1
f 21/5/1 22/6/1 23/7/1 24/8/1
f 25/5/1 26/6/1 27/7/1 28/8/1
f 29/2/1 30/9/1 31/10/1 32/3/1
f 33/8/1 34/7/1 35/11/1 36/12/1
f 37/8/1 38/7/1 39/11/1 40/12/1
f 41/8/1 42/7/1 43/11/1 44/12/1
f 45/8/1 46/7/1 47/11/1 48/12/1
f 49/8/1 50/7/1 51/11/1 52/12/1
f 53/8/1 54/7/1 55/11/1 56/12/1
f 57/13/1 58/14/1 59/15/1 60/16/1
f 61/17/1 62/18/1 63/19/1 64/20/1
f 65/8/1 66/7/1 67/11/1 68/12/1
f 69/8/1 70/7/1 71/11/1 72/12/1
f 73/21/1 74/22/1 75/18/1 76/17/1
f 77/8/1 78/7/1 79/11/1 80/12/1
f 81/8/1 82/7/1 83/11/1 84/12/1
f 85/8/1 86/7/1 87/11/1 88/12/1
f 89/8/1 90/7/1 91/11/1 92/12/1
f 93/8/1 94/7/1 95/11/1 96/12/1
f 97/8/1 98/7/1 99/11/1 100/12/1
f 101/23/1 102/24/1 103/25/1 104/26/1
f 105/23/1 106/24/1 107/25/1 108/26/1
f 109/8/1 110/7/1 111/11/1 112/12/1
f 113/8/1 114/7/1 115/11/1 116/12/1
f 117/27/1 118/28/1 119/29/1 120/30/1
f 121/31/1 122/32/1 123/24/1 124/23/1
f 125/31/1 126/32/1 127/24/1 128/23/1
f 129/8/1 130/7/1 131/11/1 132/12/1
f 133/8/1 134/7/1 135/11/1 136/12/1
f 137/33/1 138/34/1 139/35/1 140/36/1
f 141/16/1 142/15/1 143/2/1 144/1/1
f 145/5/1 146/6/1 147/7/1 148/8/1
f 149/5/1 150/6/1 151/7/1 152/8/1
f 153/5/1 154/6/1 155/7/1 156/8/1
f 157/5/1 158/6/1 159/7/1 160/8/1
f 161/15/1 162/37/1 163/9/1 164/2/1
f 165/38/1 166/39/1 167/34/1 168/33/1
f 169/40/1 170/41/1 171/42/1 172/43/1
f 173/44/1 174/45/1 175/46/1 176/47/1

