# Tiled2Unity generated file. Do not modify by hand.
# Wavefront file for 'town_mesh_0011.obj'

# Vertices (Count = 100)
v -640 -512 0
v -672 -512 0
v -672 -480 0
v -640 -480 0
v -768 -512 0
v -800 -512 0
v -800 -480 0
v -768 -480 0
v -480 -544 0
v -512 -544 0
v -512 -512 0
v -480 -512 0
v -736 -544 0
v -768 -544 0
v -768 -512 0
v -736 -512 0
v -640 -576 0
v -672 -576 0
v -672 -544 0
v -640 -544 0
v -672 -576 0
v -704 -576 0
v -704 -544 0
v -672 -544 0
v -736 -576 0
v -768 -576 0
v -768 -544 0
v -736 -544 0
v -768 -576 0
v -800 -576 0
v -800 -544 0
v -768 -544 0
v -640 -608 0
v -672 -608 0
v -672 -576 0
v -640 -576 0
v -672 -608 0
v -704 -608 0
v -704 -576 0
v -672 -576 0
v -2176 -640 0
v -2208 -640 0
v -2208 -608 0
v -2176 -608 0
v -2272 -640 0
v -2304 -640 0
v -2304 -608 0
v -2272 -608 0
v -608 -672 0
v -640 -672 0
v -640 -640 0
v -608 -640 0
v -2176 -672 0
v -2208 -672 0
v -2208 -640 0
v -2176 -640 0
v -2272 -672 0
v -2304 -672 0
v -2304 -640 0
v -2272 -640 0
v -2304 -672 0
v -2336 -672 0
v -2336 -640 0
v -2304 -640 0
v -352 -704 0
v -384 -704 0
v -384 -672 0
v -352 -672 0
v -384 -704 0
v -416 -704 0
v -416 -672 0
v -384 -672 0
v -608 -704 0
v -640 -704 0
v -640 -672 0
v -608 -672 0
v -640 -704 0
v -672 -704 0
v -672 -672 0
v -640 -672 0
v -800 -704 0
v -832 -704 0
v -832 -672 0
v -800 -672 0
v -2144 -704 0
v -2176 -704 0
v -2176 -672 0
v -2144 -672 0
v -2304 -704 0
v -2336 -704 0
v -2336 -672 0
v -2304 -672 0
v -416 -832 0
v -448 -832 0
v -448 -800 0
v -416 -800 0
v -640 -832 0
v -672 -832 0
v -672 -800 0
v -640 -800 0

# Texture cooridinates (Count = 60)
vt 0.8109162 0.7192982
vt 0.8421053 0.7192982
vt 0.8421053 0.7504873
vt 0.8109162 0.7504873
vt 0.8109162 0.8440546
vt 0.8421053 0.8440546
vt 0.8421053 0.8752437
vt 0.8109162 0.8752437
vt 0.8732944 0.8440546
vt 0.8732944 0.8752437
vt 0.5925926 0.5009747
vt 0.6237817 0.5009747
vt 0.6237817 0.5321637
vt 0.5925926 0.5321637
vt 0.6549708 0.5009747
vt 0.6549708 0.5321637
vt 0.5302144 0.5009747
vt 0.5614035 0.5009747
vt 0.5614035 0.5321637
vt 0.5302144 0.5321637
vt 0.748538 0.5321637
vt 0.7797271 0.5321637
vt 0.7797271 0.5633528
vt 0.748538 0.5633528
vt 0.8109162 0.5321637
vt 0.8109162 0.5633528
vt 0 0.7816764
vt 0.03118908 0.7816764
vt 0.03118908 0.8128655
vt 0 0.8128655
vt 0.7797271 0.6881092
vt 0.8109162 0.6881092
vt 0.7797271 0.7192982
vt 0 0.7504873
vt 0.03118908 0.7504873
vt 0.1247563 0.03313839
vt 0.1559454 0.03313839
vt 0.1559454 0.06432748
vt 0.1247563 0.06432748
vt 0.06237817 0.625731
vt 0.09356725 0.625731
vt 0.09356725 0.6569201
vt 0.06237817 0.6569201
vt 0.9044834 0.5009747
vt 0.9356725 0.5009747
vt 0.9356725 0.5321637
vt 0.9044834 0.5321637
vt 0.8421053 0.6881092
vt 0.8732944 0.6881092
vt 0.8732944 0.7192982
vt 0.2183236 0.00194931
vt 0.2495127 0.00194931
vt 0.2495127 0.03313839
vt 0.2183236 0.03313839
vt 0.1247563 0.00194931
vt 0.1559454 0.00194931
vt 0.09356725 0.5633528
vt 0.1247563 0.5633528
vt 0.1247563 0.5945419
vt 0.09356725 0.5945419

# Normal
vn 0 0 -1

# Mesh description
g town_mesh_0011

# Faces
f 1/1/1 2/2/1 3/3/1 4/4/1
f 5/1/1 6/2/1 7/3/1 8/4/1
f 9/5/1 10/6/1 11/7/1 12/8/1
f 13/6/1 14/9/1 15/10/1 16/7/1
f 17/11/1 18/12/1 19/13/1 20/14/1
f 21/12/1 22/15/1 23/16/1 24/13/1
f 25/17/1 26/18/1 27/19/1 28/20/1
f 29/18/1 30/11/1 31/14/1 32/19/1
f 33/21/1 34/22/1 35/23/1 36/24/1
f 37/22/1 38/25/1 39/26/1 40/23/1
f 41/27/1 42/28/1 43/29/1 44/30/1
f 45/27/1 46/28/1 47/29/1 48/30/1
f 49/31/1 50/32/1 51/1/1 52/33/1
f 53/34/1 54/35/1 55/28/1 56/27/1
f 57/34/1 58/35/1 59/28/1 60/27/1
f 61/36/1 62/37/1 63/38/1 64/39/1
f 65/40/1 66/41/1 67/42/1 68/43/1
f 69/44/1 70/45/1 71/46/1 72/47/1
f 73/40/1 74/41/1 75/42/1 76/43/1
f 77/48/1 78/49/1 79/50/1 80/2/1
f 81/40/1 82/41/1 83/42/1 84/43/1
f 85/51/1 86/52/1 87/53/1 88/54/1
f 89/55/1 90/56/1 91/37/1 92/36/1
f 93/40/1 94/41/1 95/42/1 96/43/1
f 97/57/1 98/58/1 99/59/1 100/60/1

