# Tiled2Unity generated file. Do not modify by hand.
# Wavefront file for 'town_mesh_0007.obj'

# Vertices (Count = 16)
v -736 -608 0
v -768 -608 0
v -768 -576 0
v -736 -576 0
v -768 -608 0
v -800 -608 0
v -800 -576 0
v -768 -576 0
v -384 -704 0
v -416 -704 0
v -416 -672 0
v -384 -672 0
v -640 -704 0
v -672 -704 0
v -672 -672 0
v -640 -672 0

# Texture cooridinates (Count = 10)
vt 0.748538 0.5633528
vt 0.7797271 0.5633528
vt 0.7797271 0.5945419
vt 0.748538 0.5945419
vt 0.8109162 0.5633528
vt 0.8109162 0.5945419
vt 0.03118908 0.6881092
vt 0.06237817 0.6881092
vt 0.06237817 0.7192982
vt 0.03118908 0.7192982

# Normal
vn 0 0 -1

# Mesh description
g town_mesh_0007

# Faces
f 1/1/1 2/2/1 3/3/1 4/4/1
f 5/2/1 6/5/1 7/6/1 8/3/1
f 9/7/1 10/8/1 11/9/1 12/10/1
f 13/7/1 14/8/1 15/9/1 16/10/1

