# Tiled2Unity generated file. Do not modify by hand.
# Wavefront file for 'Forest-road_mesh_0004.obj'

# Vertices (Count = 56)
v -896 -160 0
v -928 -160 0
v -928 -128 0
v -896 -128 0
v -896 -192 0
v -928 -192 0
v -928 -160 0
v -896 -160 0
v -416 -352 0
v -448 -352 0
v -448 -320 0
v -416 -320 0
v -1440 -352 0
v -1472 -352 0
v -1472 -320 0
v -1440 -320 0
v -416 -384 0
v -448 -384 0
v -448 -352 0
v -416 -352 0
v -1440 -384 0
v -1472 -384 0
v -1472 -352 0
v -1440 -352 0
v -1664 -384 0
v -1696 -384 0
v -1696 -352 0
v -1664 -352 0
v -1664 -416 0
v -1696 -416 0
v -1696 -384 0
v -1664 -384 0
v -1120 -576 0
v -1152 -576 0
v -1152 -544 0
v -1120 -544 0
v -1120 -608 0
v -1152 -608 0
v -1152 -576 0
v -1120 -576 0
v -1664 -704 0
v -1696 -704 0
v -1696 -672 0
v -1664 -672 0
v -1312 -736 0
v -1344 -736 0
v -1344 -704 0
v -1312 -704 0
v -1664 -736 0
v -1696 -736 0
v -1696 -704 0
v -1664 -704 0
v -1312 -768 0
v -1344 -768 0
v -1344 -736 0
v -1312 -736 0

# Texture cooridinates (Count = 6)
vt 0 0.5633528
vt 0.03118908 0.5633528
vt 0.03118908 0.5945419
vt 0 0.5945419
vt 0 0.5321637
vt 0.03118908 0.5321637

# Normal
vn 0 0 -1

# Mesh description
g Forest-road_mesh_0004

# Faces
f 1/1/1 2/2/1 3/3/1 4/4/1
f 5/5/1 6/6/1 7/2/1 8/1/1
f 9/1/1 10/2/1 11/3/1 12/4/1
f 13/1/1 14/2/1 15/3/1 16/4/1
f 17/5/1 18/6/1 19/2/1 20/1/1
f 21/5/1 22/6/1 23/2/1 24/1/1
f 25/1/1 26/2/1 27/3/1 28/4/1
f 29/5/1 30/6/1 31/2/1 32/1/1
f 33/1/1 34/2/1 35/3/1 36/4/1
f 37/5/1 38/6/1 39/2/1 40/1/1
f 41/1/1 42/2/1 43/3/1 44/4/1
f 45/1/1 46/2/1 47/3/1 48/4/1
f 49/5/1 50/6/1 51/2/1 52/1/1
f 53/5/1 54/6/1 55/2/1 56/1/1

